<?xml version="1.0" encoding="UTF-8" standalone="no"?>
<!-- Created with Inkscape (http://www.inkscape.org/) -->

<svg
   width="210mm"
   height="297mm"
   viewBox="0 0 210 297"
   version="1.1"
   id="svg1"
   xml:space="preserve"
   inkscape:version="1.4 (86a8ad7, 2024-10-11)"
   sodipodi:docname="logosintexto.svg"
   xmlns:inkscape="http://www.inkscape.org/namespaces/inkscape"
   xmlns:sodipodi="http://sodipodi.sourceforge.net/DTD/sodipodi-0.dtd"
   xmlns:xlink="http://www.w3.org/1999/xlink"
   xmlns="http://www.w3.org/2000/svg"
   xmlns:svg="http://www.w3.org/2000/svg"><sodipodi:namedview
     id="namedview1"
     pagecolor="#ffffff"
     bordercolor="#000000"
     borderopacity="0.25"
     inkscape:showpageshadow="2"
     inkscape:pageopacity="0.0"
     inkscape:pagecheckerboard="0"
     inkscape:deskcolor="#d1d1d1"
     inkscape:document-units="mm"
     inkscape:zoom="0.5"
     inkscape:cx="357"
     inkscape:cy="497"
     inkscape:window-width="1360"
     inkscape:window-height="697"
     inkscape:window-x="-8"
     inkscape:window-y="-8"
     inkscape:window-maximized="1"
     inkscape:current-layer="layer1" /><defs
     id="defs1"><inkscape:path-effect
       effect="fillet_chamfer"
       id="path-effect135"
       is_visible="true"
       lpeversion="1"
       nodesatellites_param="F,0,0,1,0,0,0,1 @ F,0,0,1,0,0,0,1 @ F,0,0,1,0,2.1223499,0,1 @ F,0,0,1,0,1.2839384,0,1 @ F,0,0,1,0,1.7681796,0,1 @ F,0,0,1,0,2.481039,0,1 @ F,0,0,1,0,2.0680445,0,1 @ F,0,0,1,0,0,0,1 @ F,0,0,1,0,1.1588104,0,1 @ F,0,0,1,0,0.70540167,0,1 @ F,0,0,1,0,0.70540167,0,1 @ F,0,0,1,0,0,0,1 @ F,0,0,1,0,0,0,1 @ F,0,0,1,0,0.70540167,0,1 @ F,0,0,1,0,0.70540167,0,1 @ F,0,0,1,0,1.845747,0,1 @ F,0,0,1,0,2.1062391,0,1 @ F,0,0,1,0,0,0,1 @ F,0,0,1,0,1.0264319,0,1 @ F,0,0,1,0,2.0803351,0,1 @ F,0,0,1,0,1.3280212,0,1 @ F,0,0,1,0,2.4171037,0,1 @ F,0,0,1,0,0,0,1 @ F,0,0,1,0,0,0,1"
       radius="0"
       unit="px"
       method="auto"
       mode="F"
       chamfer_steps="1"
       flexible="false"
       use_knot_distance="true"
       apply_no_radius="true"
       apply_with_radius="true"
       only_selected="false"
       hide_knots="false" /><inkscape:path-effect
       effect="fillet_chamfer"
       id="path-effect134"
       is_visible="true"
       lpeversion="1"
       nodesatellites_param="F,0,0,1,0,0,0,1 @ F,0,0,1,0,0,0,1 @ F,0,0,1,0,0,0,1 @ F,0,0,1,0,0,0,1 @ F,0,0,1,0,0,0,1 @ F,0,0,1,0,0,0,1 @ F,0,0,1,0,1.7254685,0,1 @ F,0,0,1,0,0,0,1 @ F,0,0,1,0,0,0,1 @ F,0,0,1,0,1.3687268,0,1 @ F,0,0,1,0,1.6524221,0,1 @ F,0,0,1,0,3.381855,0,1 @ F,0,0,1,0,1.612831,0,1 @ F,0,0,1,0,0,0,1 @ F,0,0,1,0,0,0,1 @ F,0,0,1,0,0,0,1 @ F,0,0,1,0,0,0,1 @ F,0,0,1,0,1.625618,0,1 @ F,0,0,1,0,1.5301004,0,1 @ F,0,0,1,0,0,0,1 @ F,0,0,1,0,1.2854079,0,1 @ F,0,0,1,0,2.6376151,0,1 @ F,0,0,1,0,0.65382995,0,1 @ F,0,0,1,0,1.5844036,0,1 @ F,0,0,1,0,1.4639736,0,1 @ F,0,0,1,0,1.7230206,0,1 @ F,0,0,1,0,1.8102969,0,1 @ F,0,1,1,0,1.8102969,0,1 @ F,0,0,1,0,0,0,1"
       radius="0"
       unit="px"
       method="auto"
       mode="F"
       chamfer_steps="1"
       flexible="false"
       use_knot_distance="true"
       apply_no_radius="true"
       apply_with_radius="true"
       only_selected="false"
       hide_knots="false" /><inkscape:path-effect
       effect="fillet_chamfer"
       id="path-effect133"
       is_visible="true"
       lpeversion="1"
       nodesatellites_param="F,0,0,1,0,0,0,1 @ F,0,0,1,0,1.8733871,0,1 @ F,0,0,1,0,1.4134816,0,1 @ F,0,0,1,0,0,0,1 @ F,0,0,1,0,2.1360818,0,1 @ F,0,0,1,0,2.0612959,0,1 @ F,0,0,1,0,1.1796014,0,1 @ F,0,0,1,0,2.3602229,0,1 @ F,0,0,1,0,1.6469178,0,1 @ F,0,0,1,0,1.4333397,0,1 @ F,0,0,1,0,0,0,1 @ F,0,0,1,0,2.1326017,0,1 @ F,0,0,1,0,1.6593796,0,1 @ F,0,0,1,0,1.2933889,0,1 @ F,0,0,1,0,1.0839671,0,1 @ F,0,0,1,0,1.428701,0,1 @ F,0,0,1,0,1.7971711,0,1 @ F,0,0,1,0,1.3937358,0,1 @ F,0,0,1,0,0,0,1 @ F,0,0,1,0,0,0,1 @ F,0,0,1,0,0,0,1 @ F,0,0,1,0,0,0,1 @ F,0,0,1,0,0,0,1 @ F,0,0,1,0,0,0,1 @ F,0,0,1,0,0,0,1 @ F,0,0,1,0,0,0,1 @ F,0,0,1,0,0,0,1 @ F,0,0,1,0,0,0,1 @ F,0,0,1,0,0,0,1 @ F,0,0,1,0,0,0,1 @ F,0,0,1,0,1.0339611,0,1 @ F,0,0,1,0,1.4117619,0,1 @ F,0,0,1,0,0,0,1 @ F,0,0,1,0,0,0,1 @ F,0,0,1,0,0,0,1 @ F,0,0,1,0,0,0,1 @ F,0,0,1,0,0,0,1 @ F,0,0,1,0,0,0,1 @ F,0,0,1,0,0,0,1 @ F,0,0,1,0,0,0,1 @ F,0,0,1,0,0,0,1 @ F,0,0,1,0,0,0,1 @ F,0,0,1,0,0,0,1 @ F,0,0,1,0,0,0,1 @ F,0,0,1,0,0,0,1 @ F,0,0,1,0,1.4077538,0,1 @ F,0,0,1,0,1.7031985,0,1 @ F,0,0,1,0,1.3357684,0,1 @ F,0,0,1,0,1.5987237,0,1 @ F,0,0,1,0,1.4201204,0,1 @ F,0,0,1,0,1.1253962,0,1 @ F,0,0,1,0,0.85434288,0,1 @ F,0,0,1,0,1.8228008,0,1 @ F,0,0,1,0,2.2372125,0,1 @ F,0,0,1,0,1.4349189,0,1 @ F,0,0,1,0,1.7061236,0,1 @ F,0,0,1,0,0.89675587,0,1 @ F,0,0,1,0,1.4387704,0,1 @ F,0,0,1,0,1.1229781,0,1"
       radius="0"
       unit="px"
       method="auto"
       mode="F"
       chamfer_steps="1"
       flexible="false"
       use_knot_distance="true"
       apply_no_radius="true"
       apply_with_radius="true"
       only_selected="false"
       hide_knots="false" /><inkscape:path-effect
       effect="fillet_chamfer"
       id="path-effect50"
       is_visible="true"
       lpeversion="1"
       nodesatellites_param="F,0,0,1,0,0,0,1 @ F,0,0,1,0,0.70843786,0,1 @ F,0,0,1,0,0,0,1 @ F,0,0,1,0,0,0,1 @ F,0,0,1,0,0,0,1 @ F,0,0,1,0,0,0,1 @ F,0,0,1,0,0,0,1 @ F,0,0,1,0,1.0370965,0,1 @ F,0,0,1,0,0,0,1 @ F,0,0,1,0,0.79061662,0,1 @ F,0,0,1,0,0,0,1 @ F,0,0,1,0,0,0,1 @ F,0,0,1,0,0,0,1 @ F,0,0,1,0,0,0,1 @ F,0,0,1,0,0,0,1 @ F,0,0,1,0,0,0,1 @ F,0,0,1,0,0.45423586,0,1 @ F,0,0,1,0,0,0,1 @ F,0,0,1,0,0,0,1 @ F,0,0,1,0,0,0,1 @ F,0,0,1,0,0,0,1 @ F,0,0,1,0,0,0,1 @ F,0,0,1,0,0,0,1 @ F,0,0,1,0,0,0,1 @ F,0,0,1,0,0,0,1 @ F,0,0,1,0,0,0,1 @ F,0,0,1,0,0,0,1 @ F,0,0,1,0,0,0,1 @ F,0,0,1,0,0,0,1 @ F,0,0,1,0,0,0,1 @ F,0,0,1,0,0,0,1 @ F,0,0,1,0,0,0,1 @ F,0,0,1,0,0,0,1 @ F,0,0,1,0,0,0,1 @ F,0,0,1,0,0,0,1 @ F,0,0,1,0,0.45068538,0,1 @ F,0,0,1,0,0,0,1 @ F,0,0,1,0,0,0,1 @ F,0,0,1,0,0,0,1 @ F,0,0,1,0,0,0,1 @ F,0,0,1,0,0,0,1 @ F,0,0,1,0,0,0,1 @ F,0,0,1,0,0,0,1 @ F,0,0,1,0,0,0,1 @ F,0,0,1,0,0,0,1 @ F,0,0,1,0,0,0,1 @ F,0,0,1,0,0,0,1 @ F,0,0,1,0,0,0,1 @ F,0,0,1,0,0.507228,0,1 @ F,0,0,1,0,0,0,1 @ F,0,0,1,0,0.47578588,0,1"
       radius="0"
       unit="px"
       method="auto"
       mode="F"
       chamfer_steps="1"
       flexible="false"
       use_knot_distance="true"
       apply_no_radius="true"
       apply_with_radius="true"
       only_selected="false"
       hide_knots="false" /></defs><g
     inkscape:label="Capa 1"
     inkscape:groupmode="layer"
     id="layer1"><image
       width="183.79723"
       height="183.79723"
       preserveAspectRatio="none"
       xlink:href="8cca8ff66bb0bf7a4a9a1b4588c2bd8d.jpg"
       id="image1"
       x="15.826323"
       y="21.085983"
       style="opacity:0;fill:#020202;fill-opacity:0.96470588" /><path
       style="opacity:1;fill:none;stroke:none;stroke-width:0.1"
       d="m 158.70434,89.690778 c 0.58715,10.154035 -0.0435,19.870902 -4.3637,28.263332 -0.64857,-3.07642 -1.18024,-6.52688 -2.4331,-7.66954 0.36347,1.45921 0.72695,2.97587 1.09042,9.01222 -0.40969,3.35488 -3.45575,8.15977 -8.92879,14.2995 -1.29077,1.37177 -4.66659,4.0467 -7.92179,6.64625 -6.98996,4.47312 -14.43433,8.52548 -26.18219,8.59313 -14.80585,0.15951 -24.11632,-4.07724 -27.05493,-5.97491 4.963242,0.14999 11.17842,1.24449 16.716321,2.21541 -4.978881,-2.35781 -20.272427,-6.29511 -27.256328,-9.46587 -8.309984,-7.34474 -13.990487,-16.78233 -13.56103,-31.08295 1.678345,-9.744852 3.356691,-11.466425 5.035036,-13.561032 5.305978,-6.177991 9.618829,-7.191716 14.066221,-8.905061 -4.708659,0.853819 -9.338498,1.175604 -14.737561,6.689647 -3.127822,3.461459 -4.565909,6.27302 -6.646246,9.3316 -0.301247,-6.599651 0.711907,-12.41692 4.162295,-16.783455 4.338002,-4.364378 9.830472,-7.784192 17.119124,-9.734402 2.959784,-0.30674 5.534358,-1.041491 10.674275,1.07414 2.480788,1.376827 4.625589,4.022935 5.971537,9.686933 0.01715,-3.201074 0.218234,-6.385426 -3.823255,-9.955467 0.317045,-0.181517 18.758101,2.090502 24.369571,1.007007 5.49287,-1.230312 7.24691,-2.314003 9.66728,-3.423825 l -10.27148,2.551084 c -8.42859,0.556564 -32.88532,-4.993666 -38.870478,-2.148282 -4.042887,0.975569 -8.320529,2.373697 -14.568038,7.317586 1.584323,-5.202972 5.515089,-9.655081 9.264468,-14.165235 3.592241,-3.235357 6.956281,-5.786113 9.667269,-6.377713 5.992245,-1.121735 10.826074,0.189205 15.575044,1.678348 -6.028355,-3.996741 -10.029035,-3.358799 -14.366637,-3.490961 8.427241,-5.53442 16.150381,-6.492179 23.832502,-7.183318 4.97688,-0.259898 9.91857,-0.02725 14.76944,1.476944 1.27127,1.12973 2.48055,3.065276 3.62523,5.840643 -0.31406,-1.98585 -0.89398,-3.905234 -2.21542,-5.63924 2.29307,0.215871 8.59697,3.105631 12.95683,4.699365 -3.54553,-1.521495 -7.39733,-6.983417 -25.51085,-8.257457 l 6.59947,-5.19304 c -2.69254,1.466285 -4.98942,3.072215 -8.68062,4.186033 -7.927892,1.281647 -15.971936,2.168381 -23.295433,5.504971 -1.973027,1.808196 -10.601804,2.48282 -23.832505,21.080018 -1.315764,-4.802962 -2.188108,-9.732615 -6.914782,-13.561031 1.914671,4.500699 4.536124,8.603833 4.5651,14.165236 -1.3069,8.733002 -2.426736,5.527614 -5.236438,22.019892 -1.109147,15.269302 2.670026,23.904452 6.780514,32.089962 4.396271,7.39211 10.498451,13.6242 18.058998,18.8646 9.867244,6.16943 20.518151,9.09226 32.157096,7.92179 8.7424,-0.49204 16.95936,-2.71801 24.43671,-7.38472 7.34154,-5.08979 11.54327,-9.40934 16.51492,-12.28548 3.24943,-1.17653 5.33509,-1.27882 7.45185,-1.40981 l 5.50497,0.26853 c -2.0133,-0.36164 -4.0466,-0.62322 -5.97491,-1.40981 -2.78035,0.14865 -5.52059,0.43766 -8.12319,1.20841 l 7.58612,-13.76243 c 4.51434,-12.06516 4.86491,-21.354481 2.55109,-28.867542 z"
       id="path1"
       sodipodi:nodetypes="ccccccccccccccccccccccccccccccccccccccccccccccccccccc" /><path
       style="opacity:1;fill:none;stroke:none;stroke-width:0.1"
       d="M 165.75339,126.74864 Z"
       id="path2" /><path
       style="opacity:1;fill:#2b2a26;fill-opacity:1;stroke:none;stroke-width:0.271245"
       d="m 214.22403,330.70917 c 0,-0.5923 0.65785,-1.67226 1.4619,-2.39991 2.21468,-2.00425 1.51305,-3.52482 -1.68388,-3.6493 -2.47287,-0.0963 -2.75666,0.0866 -3.14461,2.02629 l -0.42642,2.13213 -1.67774,-2.03671 c -0.92276,-1.12019 -2.01977,-2.44039 -2.4378,-2.93379 -0.54054,-0.63799 -0.52244,-0.89709 0.0627,-0.89709 0.45251,0 0.63685,-0.48442 0.40965,-1.0765 -0.36959,-0.96315 0.34111,-1.40357 1.87429,-1.16149 0.29603,0.0467 0.53825,-0.74415 0.53825,-1.75755 0,-1.44637 -0.27721,-1.75455 -1.2893,-1.43332 -1.00297,0.31833 -1.28188,0.0235 -1.25592,-1.32742 0.0184,-0.95515 0.27559,-1.97873 0.57163,-2.27463 0.29604,-0.2959 0.56095,-1.21081 0.58869,-2.03314 0.0495,-1.46679 0.0611,-1.46793 0.61459,-0.0598 0.45803,1.16537 0.62488,0.92094 0.88704,-1.29948 0.17759,-1.50416 0.028,-2.91707 -0.33238,-3.1398 -0.36039,-0.22274 -0.26629,-0.64537 0.20911,-0.93919 0.4754,-0.29382 0.91357,-1.38355 0.97371,-2.42162 0.12591,-2.17364 0.80274,-2.45074 1.54492,-0.63251 0.4706,1.15292 0.56105,1.1382 1.10284,-0.17942 l 0.59019,-1.43534 0.0733,1.43534 c 0.0698,1.36745 0.11967,1.37414 1.05446,0.14138 0.53966,-0.71168 1.09455,-0.98347 1.23309,-0.60399 0.30705,0.84101 2.65085,1.39492 2.71668,0.64203 0.0259,-0.29604 0.0421,-2.23374 0.0361,-4.30601 -0.008,-2.69732 -0.20864,-3.46192 -0.70668,-2.69126 -0.56902,0.88049 -0.69769,0.79849 -0.70668,-0.45038 -0.0128,-1.78272 -2.11606,-3.97365 -2.23553,-2.32875 -0.0393,0.54173 -0.30644,0.17758 -0.59354,-0.80921 -0.32329,-1.11119 0.0564,-3.99346 0.99752,-7.57163 1.23747,-4.70506 1.50184,-7.66902 1.42431,-15.96812 -0.0858,-9.18076 0.30935,-11.88817 1.35629,-9.29358 0.27468,0.68074 0.37564,0.68617 0.41864,0.0225 0.0312,-0.48101 0.52418,-0.69515 1.09561,-0.47588 0.7667,0.29421 0.9521,1.24135 0.70753,3.61444 -0.19781,1.91932 -0.058,3.04677 0.3468,2.79659 1.00869,-0.6234 1.39478,0.48358 0.73803,2.1161 -0.49028,1.21871 -0.58504,1.24579 -0.62787,0.17942 -0.0968,-2.40976 -1.48578,-1.23565 -1.48578,1.25591 0,1.38152 0.32296,2.51184 0.71767,2.51184 0.39472,0 0.71767,-0.48442 0.71767,-1.0765 0,-0.59207 0.31282,-1.0765 0.69515,-1.0765 0.38233,0 0.50925,0.48443 0.28205,1.0765 -0.32014,0.83428 0.16938,1.0765 2.17553,1.0765 1.43556,0 2.58862,-0.35881 2.58862,-0.80554 0,-0.59521 0.25318,-0.59542 0.96965,-8e-4 0.53331,0.4426 1.82511,0.87554 2.87067,0.96207 1.98383,0.16419 2.70256,1.27961 0.82452,1.27961 -0.59207,0 -1.0765,0.48443 -1.0765,1.0765 0,0.59208 0.32295,1.07651 0.71767,1.07651 0.39472,0 0.72261,-0.40369 0.72866,-0.89709 0.008,-0.64678 0.18651,-0.61994 0.64005,0.0962 0.34598,0.5463 0.52722,1.51515 0.40275,2.15301 -0.12447,0.63785 -0.27651,1.64416 -0.33787,2.23624 -0.0776,0.74865 -0.22181,0.8033 -0.47355,0.17942 -0.63453,-1.57252 -1.66713,-0.96348 -1.5135,0.89268 0.0909,1.0979 0.54174,1.72211 1.16636,1.61475 1.13977,-0.1959 1.7779,2.10515 0.75852,2.73517 -0.35957,0.22222 -0.65375,-0.15328 -0.65375,-0.83443 0,-1.76189 -0.7154,-0.81824 -1.13534,1.49755 -0.195,1.07539 0.0202,2.40681 0.47827,2.95873 0.45805,0.55192 0.53633,1.00349 0.17396,1.00349 -1.13127,0 -1.05597,4.99176 0.10019,6.64242 1.22807,1.75331 1.45498,2.991 0.43251,2.35908 -0.36745,-0.22709 -0.85714,-0.10699 -1.08821,0.26689 -0.23107,0.37388 -0.0574,0.90395 0.38586,1.17792 0.57129,0.35308 0.52246,0.68099 -0.16771,1.12609 -0.81153,0.52337 -0.80064,0.73928 0.0654,1.29632 0.81854,0.5265 0.62814,0.7715 -0.89709,1.1543 -2.00466,0.50314 -2.61025,2.09174 -1.03907,2.72572 0.68074,0.27468 0.68617,0.37565 0.0225,0.41864 -0.48101,0.0312 -0.68867,0.54109 -0.46147,1.13316 0.69323,1.80653 -0.89054,1.19695 -1.74127,-0.6702 -0.59941,-1.31556 -0.58356,-1.82274 0.0642,-2.05475 1.93191,-0.69195 -0.42203,-1.45996 -4.00671,-1.30726 -2.22642,0.0948 -3.43133,2.03246 -1.87623,3.01715 0.71598,0.45335 0.7458,0.63738 0.10458,0.64524 -0.4934,0.006 -0.89709,0.51447 -0.89709,1.12984 0,0.61538 0.29851,0.93437 0.66336,0.70889 1.18335,-0.73135 1.20649,2.08196 0.0277,3.36884 -1.14526,1.25028 -1.38301,6.02127 -0.38086,7.64279 0.27069,0.43798 0.15015,0.79633 -0.26786,0.79633 -0.41801,0 -0.76003,0.80737 -0.76003,1.79417 0,0.98679 -0.32295,1.79417 -0.71766,1.79417 -0.39472,0 -0.71807,0.72664 -0.71855,1.61475 -4.8e-4,0.88812 -0.80786,2.5531 -1.79417,3.69997 -1.14636,1.33296 -1.79329,1.69672 -1.79329,1.00832 z m -5.02368,-6.32304 c 0,-0.39472 -0.32295,-0.71767 -0.71767,-0.71767 -0.39472,0 -0.71767,0.32295 -0.71767,0.71767 0,0.39472 0.32295,0.71767 0.71767,0.71767 0.39472,0 0.71767,-0.32295 0.71767,-0.71767 z m 10.76502,-30.70702 c 0,-0.76813 -0.57574,-1.32598 -1.43533,-1.39073 -0.78944,-0.0595 -1.43534,0.21381 -1.43534,0.6073 0,0.39348 0.32295,0.51582 0.71767,0.27187 0.39472,-0.24395 0.71767,0.06 0.71767,0.67532 0,0.61537 0.32295,1.11885 0.71766,1.11885 0.39472,0 0.71767,-0.57717 0.71767,-1.28261 z m -4.54838,-5.35582 c -0.19909,-0.4934 -0.36198,-0.0897 -0.36198,0.89709 0,0.98679 0.16289,1.39048 0.36198,0.89708 0.19909,-0.49339 0.19909,-1.30077 0,-1.79417 z m 3.11305,-1.97359 c 0,-4.95701 -1.76634,-4.95282 -1.8668,0.004 -0.052,2.56768 0.20233,3.58392 0.89708,3.58392 0.68521,0 0.96972,-1.05278 0.96972,-3.58835 z m 1.43533,-8.97085 c 0,-0.9868 -0.32295,-1.79417 -0.71767,-1.79417 -0.39471,0 -0.71766,0.80737 -0.71766,1.79417 0,0.98679 0.32295,1.79417 0.71766,1.79417 0.39472,0 0.71767,-0.80738 0.71767,-1.79417 z"
       id="path56"
       transform="scale(0.26458333)" /><path
       style="opacity:1;fill:#2b2a26;fill-opacity:1;stroke:none;stroke-width:0.271245"
       d="m 214.22403,330.70917 c 0,-0.5923 0.65785,-1.67226 1.4619,-2.39991 2.21468,-2.00425 1.51305,-3.52482 -1.68388,-3.6493 -2.47287,-0.0963 -2.75666,0.0866 -3.14461,2.02629 l -0.42642,2.13213 -1.67774,-2.03671 c -0.92276,-1.12019 -2.01977,-2.44039 -2.4378,-2.93379 -0.54054,-0.63799 -0.52244,-0.89709 0.0627,-0.89709 0.45251,0 0.63685,-0.48442 0.40965,-1.0765 -0.36959,-0.96315 0.34111,-1.40357 1.87429,-1.16149 0.29603,0.0467 0.53825,-0.74415 0.53825,-1.75755 0,-1.44637 -0.27721,-1.75455 -1.2893,-1.43332 -1.00297,0.31833 -1.28188,0.0235 -1.25592,-1.32742 0.0184,-0.95515 0.27559,-1.97873 0.57163,-2.27463 0.29604,-0.2959 0.56095,-1.21081 0.58869,-2.03314 0.0495,-1.46679 0.0611,-1.46793 0.61459,-0.0598 0.45803,1.16537 0.62488,0.92094 0.88704,-1.29948 0.17759,-1.50416 0.028,-2.91707 -0.33238,-3.1398 -0.36039,-0.22274 -0.26629,-0.64537 0.20911,-0.93919 0.4754,-0.29382 0.91357,-1.38355 0.97371,-2.42162 0.12591,-2.17364 0.80274,-2.45074 1.54492,-0.63251 0.4706,1.15292 0.56105,1.1382 1.10284,-0.17942 l 0.59019,-1.43534 0.0733,1.43534 c 0.0698,1.36745 0.11967,1.37414 1.05446,0.14138 0.53966,-0.71168 1.09455,-0.98347 1.23309,-0.60399 0.30705,0.84101 2.65085,1.39492 2.71668,0.64203 0.0259,-0.29604 0.0421,-2.23374 0.0361,-4.30601 -0.008,-2.69732 -0.20864,-3.46192 -0.70668,-2.69126 -0.56902,0.88049 -0.69769,0.79849 -0.70668,-0.45038 -0.0128,-1.78272 -2.11606,-3.97365 -2.23553,-2.32875 -0.0393,0.54173 -0.30644,0.17758 -0.59354,-0.80921 -0.32329,-1.11119 0.0564,-3.99346 0.99752,-7.57163 1.23747,-4.70506 1.50184,-7.66902 1.42431,-15.96812 -0.0858,-9.18076 0.30935,-11.88817 1.35629,-9.29358 0.27468,0.68074 0.37564,0.68617 0.41864,0.0225 0.0312,-0.48101 0.52418,-0.69515 1.09561,-0.47588 0.7667,0.29421 0.9521,1.24135 0.70753,3.61444 -0.19781,1.91932 -0.058,3.04677 0.3468,2.79659 1.00869,-0.6234 1.39478,0.48358 0.73803,2.1161 -0.49028,1.21871 -0.58504,1.24579 -0.62787,0.17942 -0.0968,-2.40976 -1.48578,-1.23565 -1.48578,1.25591 0,1.38152 0.32296,2.51184 0.71767,2.51184 0.39472,0 0.71767,-0.48442 0.71767,-1.0765 0,-0.59207 0.31282,-1.0765 0.69515,-1.0765 0.38233,0 0.50925,0.48443 0.28205,1.0765 -0.32014,0.83428 0.16938,1.0765 2.17553,1.0765 1.43556,0 2.58862,-0.35881 2.58862,-0.80554 0,-0.59521 0.25318,-0.59542 0.96965,-8e-4 0.53331,0.4426 1.82511,0.87554 2.87067,0.96207 1.98383,0.16419 2.70256,1.27961 0.82452,1.27961 -0.59207,0 -1.0765,0.48443 -1.0765,1.0765 0,0.59208 0.32295,1.07651 0.71767,1.07651 0.39472,0 0.72261,-0.40369 0.72866,-0.89709 0.008,-0.64678 0.18651,-0.61994 0.64005,0.0962 0.34598,0.5463 0.52722,1.51515 0.40275,2.15301 -0.12447,0.63785 -0.27651,1.64416 -0.33787,2.23624 -0.0776,0.74865 -0.22181,0.8033 -0.47355,0.17942 -0.63453,-1.57252 -1.66713,-0.96348 -1.5135,0.89268 0.0909,1.0979 0.54174,1.72211 1.16636,1.61475 1.13977,-0.1959 1.7779,2.10515 0.75852,2.73517 -0.35957,0.22222 -0.65375,-0.15328 -0.65375,-0.83443 0,-1.76189 -0.7154,-0.81824 -1.13534,1.49755 -0.195,1.07539 0.0202,2.40681 0.47827,2.95873 0.45805,0.55192 0.53633,1.00349 0.17396,1.00349 -1.13127,0 -1.05597,4.99176 0.10019,6.64242 1.22807,1.75331 1.45498,2.991 0.43251,2.35908 -0.36745,-0.22709 -0.85714,-0.10699 -1.08821,0.26689 -0.23107,0.37388 -0.0574,0.90395 0.38586,1.17792 0.57129,0.35308 0.52246,0.68099 -0.16771,1.12609 -0.81153,0.52337 -0.80064,0.73928 0.0654,1.29632 0.81854,0.5265 0.62814,0.7715 -0.89709,1.1543 -2.00466,0.50314 -2.61025,2.09174 -1.03907,2.72572 0.68074,0.27468 0.68617,0.37565 0.0225,0.41864 -0.48101,0.0312 -0.68867,0.54109 -0.46147,1.13316 0.69323,1.80653 -0.89054,1.19695 -1.74127,-0.6702 -0.59941,-1.31556 -0.58356,-1.82274 0.0642,-2.05475 1.93191,-0.69195 -0.42203,-1.45996 -4.00671,-1.30726 -2.22642,0.0948 -3.43133,2.03246 -1.87623,3.01715 0.71598,0.45335 0.7458,0.63738 0.10458,0.64524 -0.4934,0.006 -0.89709,0.51447 -0.89709,1.12984 0,0.61538 0.29851,0.93437 0.66336,0.70889 1.18335,-0.73135 1.20649,2.08196 0.0277,3.36884 -1.14526,1.25028 -1.38301,6.02127 -0.38086,7.64279 0.27069,0.43798 0.15015,0.79633 -0.26786,0.79633 -0.41801,0 -0.76003,0.80737 -0.76003,1.79417 0,0.98679 -0.32295,1.79417 -0.71766,1.79417 -0.39472,0 -0.71807,0.72664 -0.71855,1.61475 -4.8e-4,0.88812 -0.80786,2.5531 -1.79417,3.69997 -1.14636,1.33296 -1.79329,1.69672 -1.79329,1.00832 z m -5.02368,-6.32304 c 0,-0.39472 -0.32295,-0.71767 -0.71767,-0.71767 -0.39472,0 -0.71767,0.32295 -0.71767,0.71767 0,0.39472 0.32295,0.71767 0.71767,0.71767 0.39472,0 0.71767,-0.32295 0.71767,-0.71767 z m 10.76502,-30.70702 c 0,-0.76813 -0.57574,-1.32598 -1.43533,-1.39073 -0.78944,-0.0595 -1.43534,0.21381 -1.43534,0.6073 0,0.39348 0.32295,0.51582 0.71767,0.27187 0.39472,-0.24395 0.71767,0.06 0.71767,0.67532 0,0.61537 0.32295,1.11885 0.71766,1.11885 0.39472,0 0.71767,-0.57717 0.71767,-1.28261 z m -4.54838,-5.35582 c -0.19909,-0.4934 -0.36198,-0.0897 -0.36198,0.89709 0,0.98679 0.16289,1.39048 0.36198,0.89708 0.19909,-0.49339 0.19909,-1.30077 0,-1.79417 z m 3.11305,-1.97359 c 0,-4.95701 -1.76634,-4.95282 -1.8668,0.004 -0.052,2.56768 0.20233,3.58392 0.89708,3.58392 0.68521,0 0.96972,-1.05278 0.96972,-3.58835 z m 1.43533,-8.97085 c 0,-0.9868 -0.32295,-1.79417 -0.71767,-1.79417 -0.39471,0 -0.71766,0.80737 -0.71766,1.79417 0,0.98679 0.32295,1.79417 0.71766,1.79417 0.39472,0 0.71767,-0.80738 0.71767,-1.79417 z"
       id="path57"
       transform="scale(0.26458333)" /><path
       style="opacity:1;fill:#2b2a26;fill-opacity:1;stroke:none;stroke-width:0.271245"
       d="m 214.22403,330.70917 c 0,-0.5923 0.65785,-1.67226 1.4619,-2.39991 2.21468,-2.00425 1.51305,-3.52482 -1.68388,-3.6493 -2.47287,-0.0963 -2.75666,0.0866 -3.14461,2.02629 l -0.42642,2.13213 -1.67774,-2.03671 c -0.92276,-1.12019 -2.01977,-2.44039 -2.4378,-2.93379 -0.54054,-0.63799 -0.52244,-0.89709 0.0627,-0.89709 0.45251,0 0.63685,-0.48442 0.40965,-1.0765 -0.36959,-0.96315 0.34111,-1.40357 1.87429,-1.16149 0.29603,0.0467 0.53825,-0.74415 0.53825,-1.75755 0,-1.44637 -0.27721,-1.75455 -1.2893,-1.43332 -1.00297,0.31833 -1.28188,0.0235 -1.25592,-1.32742 0.0184,-0.95515 0.27559,-1.97873 0.57163,-2.27463 0.29604,-0.2959 0.56095,-1.21081 0.58869,-2.03314 0.0495,-1.46679 0.0611,-1.46793 0.61459,-0.0598 0.45803,1.16537 0.62488,0.92094 0.88704,-1.29948 0.17759,-1.50416 0.028,-2.91707 -0.33238,-3.1398 -0.36039,-0.22274 -0.26629,-0.64537 0.20911,-0.93919 0.4754,-0.29382 0.91357,-1.38355 0.97371,-2.42162 0.12591,-2.17364 0.80274,-2.45074 1.54492,-0.63251 0.4706,1.15292 0.56105,1.1382 1.10284,-0.17942 l 0.59019,-1.43534 0.0733,1.43534 c 0.0698,1.36745 0.11967,1.37414 1.05446,0.14138 0.53966,-0.71168 1.09455,-0.98347 1.23309,-0.60399 0.30705,0.84101 2.65085,1.39492 2.71668,0.64203 0.0259,-0.29604 0.0421,-2.23374 0.0361,-4.30601 -0.008,-2.69732 -0.20864,-3.46192 -0.70668,-2.69126 -0.56902,0.88049 -0.69769,0.79849 -0.70668,-0.45038 -0.0128,-1.78272 -2.11606,-3.97365 -2.23553,-2.32875 -0.0393,0.54173 -0.30644,0.17758 -0.59354,-0.80921 -0.32329,-1.11119 0.0564,-3.99346 0.99752,-7.57163 1.23747,-4.70506 1.50184,-7.66902 1.42431,-15.96812 -0.0858,-9.18076 0.30935,-11.88817 1.35629,-9.29358 0.27468,0.68074 0.37564,0.68617 0.41864,0.0225 0.0312,-0.48101 0.52418,-0.69515 1.09561,-0.47588 0.7667,0.29421 0.9521,1.24135 0.70753,3.61444 -0.19781,1.91932 -0.058,3.04677 0.3468,2.79659 1.00869,-0.6234 1.39478,0.48358 0.73803,2.1161 -0.49028,1.21871 -0.58504,1.24579 -0.62787,0.17942 -0.0968,-2.40976 -1.48578,-1.23565 -1.48578,1.25591 0,1.38152 0.32296,2.51184 0.71767,2.51184 0.39472,0 0.71767,-0.48442 0.71767,-1.0765 0,-0.59207 0.31282,-1.0765 0.69515,-1.0765 0.38233,0 0.50925,0.48443 0.28205,1.0765 -0.32014,0.83428 0.16938,1.0765 2.17553,1.0765 1.43556,0 2.58862,-0.35881 2.58862,-0.80554 0,-0.59521 0.25318,-0.59542 0.96965,-8e-4 0.53331,0.4426 1.82511,0.87554 2.87067,0.96207 1.98383,0.16419 2.70256,1.27961 0.82452,1.27961 -0.59207,0 -1.0765,0.48443 -1.0765,1.0765 0,0.59208 0.32295,1.07651 0.71767,1.07651 0.39472,0 0.72261,-0.40369 0.72866,-0.89709 0.008,-0.64678 0.18651,-0.61994 0.64005,0.0962 0.34598,0.5463 0.52722,1.51515 0.40275,2.15301 -0.12447,0.63785 -0.27651,1.64416 -0.33787,2.23624 -0.0776,0.74865 -0.22181,0.8033 -0.47355,0.17942 -0.63453,-1.57252 -1.66713,-0.96348 -1.5135,0.89268 0.0909,1.0979 0.54174,1.72211 1.16636,1.61475 1.13977,-0.1959 1.7779,2.10515 0.75852,2.73517 -0.35957,0.22222 -0.65375,-0.15328 -0.65375,-0.83443 0,-1.76189 -0.7154,-0.81824 -1.13534,1.49755 -0.195,1.07539 0.0202,2.40681 0.47827,2.95873 0.45805,0.55192 0.53633,1.00349 0.17396,1.00349 -1.13127,0 -1.05597,4.99176 0.10019,6.64242 1.22807,1.75331 1.45498,2.991 0.43251,2.35908 -0.36745,-0.22709 -0.85714,-0.10699 -1.08821,0.26689 -0.23107,0.37388 -0.0574,0.90395 0.38586,1.17792 0.57129,0.35308 0.52246,0.68099 -0.16771,1.12609 -0.81153,0.52337 -0.80064,0.73928 0.0654,1.29632 0.81854,0.5265 0.62814,0.7715 -0.89709,1.1543 -2.00466,0.50314 -2.61025,2.09174 -1.03907,2.72572 0.68074,0.27468 0.68617,0.37565 0.0225,0.41864 -0.48101,0.0312 -0.68867,0.54109 -0.46147,1.13316 0.69323,1.80653 -0.89054,1.19695 -1.74127,-0.6702 -0.59941,-1.31556 -0.58356,-1.82274 0.0642,-2.05475 1.93191,-0.69195 -0.42203,-1.45996 -4.00671,-1.30726 -2.22642,0.0948 -3.43133,2.03246 -1.87623,3.01715 0.71598,0.45335 0.7458,0.63738 0.10458,0.64524 -0.4934,0.006 -0.89709,0.51447 -0.89709,1.12984 0,0.61538 0.29851,0.93437 0.66336,0.70889 1.18335,-0.73135 1.20649,2.08196 0.0277,3.36884 -1.14526,1.25028 -1.38301,6.02127 -0.38086,7.64279 0.27069,0.43798 0.15015,0.79633 -0.26786,0.79633 -0.41801,0 -0.76003,0.80737 -0.76003,1.79417 0,0.98679 -0.32295,1.79417 -0.71766,1.79417 -0.39472,0 -0.71807,0.72664 -0.71855,1.61475 -4.8e-4,0.88812 -0.80786,2.5531 -1.79417,3.69997 -1.14636,1.33296 -1.79329,1.69672 -1.79329,1.00832 z m -5.02368,-6.32304 c 0,-0.39472 -0.32295,-0.71767 -0.71767,-0.71767 -0.39472,0 -0.71767,0.32295 -0.71767,0.71767 0,0.39472 0.32295,0.71767 0.71767,0.71767 0.39472,0 0.71767,-0.32295 0.71767,-0.71767 z m 10.76502,-30.70702 c 0,-0.76813 -0.57574,-1.32598 -1.43533,-1.39073 -0.78944,-0.0595 -1.43534,0.21381 -1.43534,0.6073 0,0.39348 0.32295,0.51582 0.71767,0.27187 0.39472,-0.24395 0.71767,0.06 0.71767,0.67532 0,0.61537 0.32295,1.11885 0.71766,1.11885 0.39472,0 0.71767,-0.57717 0.71767,-1.28261 z m -4.54838,-5.35582 c -0.19909,-0.4934 -0.36198,-0.0897 -0.36198,0.89709 0,0.98679 0.16289,1.39048 0.36198,0.89708 0.19909,-0.49339 0.19909,-1.30077 0,-1.79417 z m 3.11305,-1.97359 c 0,-4.95701 -1.76634,-4.95282 -1.8668,0.004 -0.052,2.56768 0.20233,3.58392 0.89708,3.58392 0.68521,0 0.96972,-1.05278 0.96972,-3.58835 z m 1.43533,-8.97085 c 0,-0.9868 -0.32295,-1.79417 -0.71767,-1.79417 -0.39471,0 -0.71766,0.80737 -0.71766,1.79417 0,0.98679 0.32295,1.79417 0.71766,1.79417 0.39472,0 0.71767,-0.80738 0.71767,-1.79417 z"
       id="path58"
       transform="scale(0.26458333)" /><path
       style="opacity:1;fill:#2b2a26;fill-opacity:1;stroke:none;stroke-width:0.271245"
       d="m 373.90525,579.03399 c -30.62476,-3.07607 -66.5011,-16.92196 -91.21066,-35.20128 -29.17058,-21.57942 -52.84501,-48.7376 -65.3893,-75.01147 -8.96143,-18.76961 -15.09799,-36.43678 -18.04969,-51.96503 -2.84476,-14.96566 -3.31891,-20.75172 -3.31385,-40.43912 0.005,-18.2361 0.1228,-19.98701 2.00592,-29.7362 3.43739,-17.7958 6.66606,-30.82086 10.78116,-43.49326 9.87371,-30.40597 9.35047,-40.5309 -3.56818,-69.04634 -2.57916,-5.693 -4.53934,-10.50094 -4.35597,-10.68432 0.54829,-0.54829 7.91962,8.70954 10.78311,13.54276 3.52443,5.94882 6.43884,13.64086 9.61869,25.38675 1.43563,5.30299 2.84795,9.55388 3.13849,9.44641 0.29055,-0.10746 3.82324,-4.55523 7.85044,-9.88391 18.9688,-25.09903 38.78518,-44.48776 57.03475,-55.8039 9.09604,-5.64025 30.8794,-16.33078 38.99318,-19.13653 l 7.42556,-2.56776 16.2575,0.0624 16.2575,0.0624 -8.25318,1.77326 c -16.88512,3.62791 -34.80898,10.65132 -48.65456,19.06514 l -6.24708,3.79629 11.64596,0.48241 c 6.40527,0.26532 14.05788,0.9812 17.00578,1.59084 5.66254,1.17104 14.86737,4.53035 19.07321,6.96078 2.80486,1.62084 3.43596,1.70614 -8.25318,-1.11552 -19.12941,-4.61768 -39.16819,-4.25758 -50.10054,0.90031 -10.68466,5.04102 -26.06967,17.49455 -35.20699,28.4986 -10.37623,12.49607 -17.89922,22.83719 -22.00384,30.2465 -3.73833,6.74812 -7.41418,15.63098 -6.9922,16.89694 0.11856,0.35567 2.63291,-1.16845 5.58744,-3.38694 15.4215,-11.57966 27.45921,-17.48074 47.71431,-23.39033 l 10.76503,-3.14079 15.42987,0.0775 c 16.08503,0.0808 23.41183,0.71239 57.41347,4.94884 29.81912,3.71533 44.6047,5.27216 54.90164,5.7808 l 9.32969,0.46086 14.62388,-3.68988 c 8.04313,-2.02943 14.9538,-3.57991 15.35704,-3.44549 2.00553,0.66851 -20.16733,7.79233 -28.42515,9.13259 -9.93696,1.61278 -37.4695,0.57141 -75.10383,-2.84068 -8.08458,-0.73298 -14.9544,-1.17499 -15.26627,-0.98225 -0.31186,0.19274 1.33169,2.42254 3.65232,4.95511 6.47919,7.0709 10.25574,16.1134 10.11224,24.21255 l -0.0534,3.01477 -1.67922,-4.80163 c -4.36972,-12.49502 -11.90794,-22.44816 -19.99797,-26.40449 -9.35249,-4.57372 -21.00215,-6.37369 -32.93572,-5.08884 -23.09439,2.48649 -53.73351,18.20875 -70.90766,36.38579 -9.5791,10.13847 -15.33817,25.03965 -17.1617,44.40461 -0.86566,9.19291 -0.98553,21.89799 -0.20633,21.86854 0.29604,-0.0112 3.60433,-4.77471 7.35177,-10.58561 8.8701,-13.75427 14.26501,-20.86769 20.5403,-27.08326 9.64339,-9.55162 20.69802,-15.95615 33.42809,-19.36664 9.82527,-2.63227 11.40224,-2.2215 3.73315,0.9724 -12.45823,5.18842 -21.42998,11.20396 -31.03309,20.80764 -13.80551,13.80633 -18.60949,23.67517 -23.80929,48.91152 -2.13636,10.36847 -2.26036,11.75741 -1.82607,20.45355 0.90739,18.16959 2.88631,29.54433 7.58477,43.59703 7.05088,21.08856 20.18029,41.26856 37.54294,57.70375 5.14355,4.8688 7.15316,6.23806 12.46247,8.49138 5.81019,2.46591 27.08377,9.60649 70.42734,23.63931 9.20215,2.97926 17.27592,5.76551 17.94171,6.19167 1.39117,0.89046 2.05356,0.96905 -18.16651,-2.15553 -16.30472,-2.51955 -28.82762,-3.81822 -33.73041,-3.49799 l -3.58834,0.23437 4.66484,2.62841 c 14.84079,8.36205 39.9187,15.61281 64.23133,18.57116 11.15156,1.35691 32.52652,2.01189 44.1366,1.35244 28.99952,-1.64717 51.82316,-9.14592 80.7377,-26.52652 9.56432,-5.74914 29.86208,-21.69364 37.95201,-29.81243 9.84154,-9.87666 24.32381,-29.46558 29.72252,-40.20308 4.99498,-9.9345 5.45526,-12.45338 4.49571,-24.6025 -0.45581,-5.77119 -1.1495,-12.55259 -1.54151,-15.06977 -0.39202,-2.51717 -0.56212,-4.72732 -0.37802,-4.91143 0.5243,-0.52429 3.6937,10.24499 5.11567,17.38247 0.70773,3.55246 1.55231,6.75822 1.87683,7.12392 0.7952,0.89608 5.15888,-8.79398 8.54061,-18.96545 6.05725,-18.21878 8.52334,-34.74181 9.21171,-61.71948 0.43807,-17.16818 0.52089,-18.01191 1.3385,-13.6357 4.78492,25.61087 1.89069,52.79156 -9.17018,86.12021 -2.51456,7.57689 -5.26429,13.13166 -17.69579,35.74753 -8.09524,14.72716 -14.56768,26.92759 -14.38322,27.11206 0.18447,0.18446 1.17502,0.0162 2.20121,-0.37399 2.95584,-1.12381 13.10228,-2.83817 21.15731,-3.57477 6.54701,-0.5987 7.85492,-0.51766 11.41563,0.70741 2.21179,0.76096 4.69752,1.43333 5.52385,1.49413 0.82632,0.0608 -3.01891,0.35666 -8.54496,0.65745 -5.52604,0.30079 -12.37737,1.05157 -15.22517,1.66842 -13.27321,2.87505 -17.16784,5.32221 -49.61682,31.17632 -20.97788,16.71437 -32.71757,24.23128 -48.20512,30.86568 -14.70991,6.30128 -30.02064,10.6756 -46.83834,13.38183 -17.47517,2.81204 -44.09105,3.89203 -59.00342,2.39418 z"
       id="path60"
       transform="scale(0.26458333)" /><path
       style="opacity:1;fill:#2b2a26;fill-opacity:1;stroke:none;stroke-width:0.271245"
       d="m 373.90525,579.03399 c -30.62476,-3.07607 -66.5011,-16.92196 -91.21066,-35.20128 -29.17058,-21.57942 -52.84501,-48.7376 -65.3893,-75.01147 -8.96143,-18.76961 -15.09799,-36.43678 -18.04969,-51.96503 -2.84476,-14.96566 -3.31891,-20.75172 -3.31385,-40.43912 0.005,-18.2361 0.1228,-19.98701 2.00592,-29.7362 3.43739,-17.7958 6.66606,-30.82086 10.78116,-43.49326 9.87371,-30.40597 9.35047,-40.5309 -3.56818,-69.04634 -2.57916,-5.693 -4.53934,-10.50094 -4.35597,-10.68432 0.54829,-0.54829 7.91962,8.70954 10.78311,13.54276 3.52443,5.94882 6.43884,13.64086 9.61869,25.38675 1.43563,5.30299 2.84795,9.55388 3.13849,9.44641 0.29055,-0.10746 3.82324,-4.55523 7.85044,-9.88391 18.9688,-25.09903 38.78518,-44.48776 57.03475,-55.8039 9.09604,-5.64025 30.8794,-16.33078 38.99318,-19.13653 l 7.42556,-2.56776 16.2575,0.0624 16.2575,0.0624 -8.25318,1.77326 c -16.88512,3.62791 -34.80898,10.65132 -48.65456,19.06514 l -6.24708,3.79629 11.64596,0.48241 c 6.40527,0.26532 14.05788,0.9812 17.00578,1.59084 5.66254,1.17104 14.86737,4.53035 19.07321,6.96078 2.80486,1.62084 3.43596,1.70614 -8.25318,-1.11552 -19.12941,-4.61768 -39.16819,-4.25758 -50.10054,0.90031 -10.68466,5.04102 -26.06967,17.49455 -35.20699,28.4986 -10.37623,12.49607 -17.89922,22.83719 -22.00384,30.2465 -3.73833,6.74812 -7.41418,15.63098 -6.9922,16.89694 0.11856,0.35567 2.63291,-1.16845 5.58744,-3.38694 15.4215,-11.57966 27.45921,-17.48074 47.71431,-23.39033 l 10.76503,-3.14079 15.42987,0.0775 c 16.08503,0.0808 23.41183,0.71239 57.41347,4.94884 29.81912,3.71533 44.6047,5.27216 54.90164,5.7808 l 9.32969,0.46086 14.62388,-3.68988 c 8.04313,-2.02943 21.83634,-6.11725 22.23958,-5.98283 2.00553,0.66851 -27.04987,10.32967 -35.30769,11.66993 -9.93696,1.61278 -37.4695,0.57141 -75.10383,-2.84068 -8.08458,-0.73298 -14.9544,-1.17499 -15.26627,-0.98225 -0.31186,0.19274 1.33169,2.42254 3.65232,4.95511 6.47919,7.0709 10.25574,16.1134 10.11224,24.21255 l -0.0534,3.01477 -1.67922,-4.80163 c -4.36972,-12.49502 -11.90794,-22.44816 -19.99797,-26.40449 -9.35249,-4.57372 -21.00215,-6.37369 -32.93572,-5.08884 -23.09439,2.48649 -53.73351,18.20875 -70.90766,36.38579 -9.5791,10.13847 -15.33817,25.03965 -17.1617,44.40461 -0.86566,9.19291 -0.98553,21.89799 -0.20633,21.86854 0.29604,-0.0112 3.60433,-4.77471 7.35177,-10.58561 8.8701,-13.75427 14.26501,-20.86769 20.5403,-27.08326 9.64339,-9.55162 20.69802,-15.95615 33.42809,-19.36664 9.82527,-2.63227 11.40224,-2.2215 3.73315,0.9724 -12.45823,5.18842 -21.42998,11.20396 -31.03309,20.80764 -13.80551,13.80633 -18.60949,23.67517 -23.80929,48.91152 -2.13636,10.36847 -2.26036,11.75741 -1.82607,20.45355 0.90739,18.16959 2.88631,29.54433 7.58477,43.59703 7.05088,21.08856 20.18029,41.26856 37.54294,57.70375 5.14355,4.8688 7.15316,6.23806 12.46247,8.49138 5.81019,2.46591 27.08377,9.60649 70.42734,23.63931 9.20215,2.97926 17.27592,5.76551 17.94171,6.19167 1.39117,0.89046 2.05356,0.96905 -18.16651,-2.15553 -16.30472,-2.51955 -28.82762,-3.81822 -33.73041,-3.49799 l -3.58834,0.23437 4.66484,2.62841 c 14.84079,8.36205 39.9187,15.61281 64.23133,18.57116 11.15156,1.35691 32.52652,2.01189 44.1366,1.35244 28.99952,-1.64717 51.82316,-9.14592 80.7377,-26.52652 9.56432,-5.74914 29.86208,-21.69364 37.95201,-29.81243 9.84154,-9.87666 24.32381,-29.46558 29.72252,-40.20308 4.99498,-9.9345 5.45526,-12.45338 4.49571,-24.6025 -0.45581,-5.77119 -1.1495,-12.55259 -1.54151,-15.06977 -0.39202,-2.51717 -0.56212,-4.72732 -0.37802,-4.91143 0.5243,-0.52429 3.6937,10.24499 5.11567,17.38247 0.70773,3.55246 1.55231,6.75822 1.87683,7.12392 0.7952,0.89608 5.15888,-8.79398 8.54061,-18.96545 6.05725,-18.21878 8.60015,-34.73996 9.21171,-61.71948 0.39257,-17.31835 -3.27483,-38.03314 1.60763,-13.90483 5.1674,25.53645 1.62156,53.06069 -9.43931,86.38934 -2.51456,7.57689 -5.26429,13.13166 -17.69579,35.74753 -8.09524,14.72716 -14.56768,26.92759 -14.38322,27.11206 0.18447,0.18446 1.17502,0.0162 2.20121,-0.37399 2.95584,-1.12381 13.10228,-2.83817 21.15731,-3.57477 6.54701,-0.5987 7.85492,-0.51766 11.41563,0.70741 2.21179,0.76096 4.69752,1.43333 5.52385,1.49413 0.82632,0.0608 -3.01891,0.35666 -8.54496,0.65745 -5.52604,0.30079 -12.37737,1.05157 -15.22517,1.66842 -13.27321,2.87505 -17.16784,5.32221 -49.61682,31.17632 -20.97788,16.71437 -32.71757,24.23128 -48.20512,30.86568 -14.70991,6.30128 -30.02064,10.6756 -46.83834,13.38183 -17.47517,2.81204 -44.09105,3.89203 -59.00342,2.39418 z"
       id="path61"
       sodipodi:nodetypes="sssscsssssssssscccsscsssssssssscssscssssssscsssssssssssssssssssscssssssssssssssssssssssssssss"
       transform="scale(0.26458333)" /><path
       style="opacity:1;fill:#2b2a26;fill-opacity:1;stroke:none;stroke-width:0.0958995"
       d="m 463.9929,203.99851 c -2.37238,-5.34837 -6.42409,-11.65123 -9.53252,-14.82884 l -2.05247,-2.09814 -3.93288,-1.03803 c -14.01939,-3.70026 -29.15494,-5.21787 -46.05274,-4.6176 -8.87477,0.31527 -22.90958,1.75019 -32.22423,3.29463 -3.31037,0.54888 -3.25408,0.29593 -3.74774,0.46258 -0.88577,0.29902 -9.49364,0.7878 -22.11214,0.68713 -8.74544,-0.0698 -7.78852,-1.59312 -7.87486,-1.67954 -0.0863,-0.0864 0.27529,-0.27267 0.80363,-0.41391 12.58551,-3.36431 17.5663,-4.49712 28.61763,-6.50865 6.99106,-1.27249 9.02586,-1.60655 25.50028,-4.18649 11.77264,-1.84363 12.90822,-2.10917 18.52259,-4.33127 5.16608,-2.04468 10.17603,-4.54033 17.20389,-8.56993 1.57736,-0.90442 2.91264,-1.59968 2.96729,-1.54502 0.10417,0.10417 -0.39088,0.50136 -12.75246,10.23182 -4.22315,3.32427 -7.64032,6.08226 -7.59372,6.12886 0.0466,0.0466 2.13175,0.25948 4.63365,0.47305 31.81755,2.71602 54.9782,8.86261 73.31085,19.45592 4.13441,2.38902 13.096,8.1734 12.81978,8.2747 -0.11342,0.0416 -4.6365,-1.70851 -10.0513,-3.88911 -11.61268,-4.67655 -19.08589,-7.54618 -23.41107,-8.98959 -3.6491,-1.21778 -7.92347,-2.29331 -9.11595,-2.29378 l -0.83286,-3.3e-4 0.98877,1.33211 c 1.4696,1.97989 2.9424,4.58969 4.11755,7.29631 1.11034,2.55732 2.84421,8.21019 2.71849,8.86297 -0.0413,0.21419 -0.45411,-0.46524 -0.91746,-1.50985 z"
       id="path62"
       transform="scale(0.26458333)"
       sodipodi:nodetypes="sscsssssscssssssssssssscssss" /><image
       width="183.79723"
       height="183.79723"
       preserveAspectRatio="none"
       xlink:href="8cca8ff66bb0bf7a4a9a1b4588c2bd8d.jpg"
       id="image1-4"
       x="15.935225"
       y="20.447613"
       style="opacity:0;fill:#aab686;fill-opacity:1" /><path
       style="opacity:1;fill:none;fill-opacity:1;stroke:#000000;stroke-width:0.1;stroke-opacity:1"
       d="m 64.784131,89.992879 5.001469,0.604205 3.457392,1.779045 -3.524525,-2.886755 -4.12873,-0.402802 z"
       id="path68" /><path
       style="opacity:0;fill:#aab686;fill-opacity:1;stroke:#000000;stroke-width:0.0479498;stroke-opacity:1"
       d="m 268.89113,344.76186 -5.01484,-2.5914 -9.00397,-1.0831 c -4.95218,-0.59571 -9.11574,-1.0975 -9.25234,-1.1151 -0.20015,-0.0258 -0.0186,-0.29057 0.93533,-1.36409 0.65103,-0.73266 1.24878,-1.40215 1.32833,-1.48776 0.11386,-0.12252 1.77311,0.004 7.79709,0.59565 4.20886,0.4132 7.71918,0.80217 7.80073,0.86436 0.75373,0.57482 10.61481,8.67824 10.61481,8.7228 0,0.13636 -0.42107,-0.0692 -5.20514,-2.54136 z"
       id="path74"
       transform="scale(0.26458333)" /><path
       style="opacity:0;fill:#aab686;fill-opacity:1;stroke:#000000;stroke-width:0.0479498;stroke-opacity:1"
       d="m 268.89113,344.76186 -5.01484,-2.5914 -9.00397,-1.0831 c -4.95218,-0.59571 -9.11574,-1.0975 -9.25234,-1.1151 -0.20015,-0.0258 -0.0186,-0.29057 0.93533,-1.36409 0.65103,-0.73266 1.24878,-1.40215 1.32833,-1.48776 0.11386,-0.12252 1.77311,0.004 7.79709,0.59565 4.20886,0.4132 7.71918,0.80217 7.80073,0.86436 0.75373,0.57482 10.61481,8.67824 10.61481,8.7228 0,0.13636 -0.42107,-0.0692 -5.20514,-2.54136 z"
       id="path75"
       transform="scale(0.26458333)" /><path
       style="opacity:0;fill:#aab686;fill-opacity:1;stroke:#000000;stroke-width:0.0119874;stroke-opacity:1"
       d="m 269.4049,345.08828 -5.57943,-2.87322 -4.15761,-0.50221 c -2.28669,-0.27622 -6.41981,-0.77413 -9.18472,-1.10648 -2.76491,-0.33234 -5.0652,-0.61461 -5.11175,-0.62725 -0.0814,-0.0221 -0.0326,-0.0815 1.26266,-1.53747 0.74102,-0.83296 1.36834,-1.51447 1.39406,-1.51447 0.19711,0 15.35961,1.49678 15.40005,1.52023 0.0585,0.0339 11.45723,9.3629 11.5553,9.45711 0.0344,0.0331 0.0487,0.0594 0.0317,0.0585 -0.017,-8.6e-4 -2.54158,-1.29451 -5.61027,-2.87478 z"
       id="path76"
       transform="scale(0.26458333)" /><path
       style="opacity:0;fill:#aab686;fill-opacity:1;stroke:#000000;stroke-width:0.0119874;stroke-opacity:1"
       d="m 269.4049,345.08828 -5.57943,-2.87322 -4.15761,-0.50221 c -2.28669,-0.27622 -6.41981,-0.77413 -9.18472,-1.10648 -2.76491,-0.33234 -5.0652,-0.61461 -5.11175,-0.62725 -0.0814,-0.0221 -0.0326,-0.0815 1.26266,-1.53747 0.74102,-0.83296 1.36834,-1.51447 1.39406,-1.51447 0.19711,0 15.35961,1.49678 15.40005,1.52023 0.0585,0.0339 11.45723,9.3629 11.5553,9.45711 0.0344,0.0331 0.0487,0.0594 0.0317,0.0585 -0.017,-8.6e-4 -2.54158,-1.29451 -5.61027,-2.87478 z"
       id="path77"
       transform="scale(0.26458333)" /><path
       style="opacity:0;fill:#aab686;fill-opacity:1;stroke:#000000;stroke-width:0.0119874;stroke-opacity:1"
       d="m 269.4049,345.08828 -5.57943,-2.87322 -4.15761,-0.50221 c -2.28669,-0.27622 -6.41981,-0.77413 -9.18472,-1.10648 -2.76491,-0.33234 -5.0652,-0.61461 -5.11175,-0.62725 -0.0814,-0.0221 -0.0326,-0.0815 1.26266,-1.53747 0.74102,-0.83296 1.36834,-1.51447 1.39406,-1.51447 0.19711,0 15.35961,1.49678 15.40005,1.52023 0.0585,0.0339 11.45723,9.3629 11.5553,9.45711 0.0344,0.0331 0.0487,0.0594 0.0317,0.0585 -0.017,-8.6e-4 -2.54158,-1.29451 -5.61027,-2.87478 z"
       id="path78"
       transform="scale(0.26458333)" /><path
       style="opacity:1;fill:#aab686;fill-opacity:1;stroke:none;stroke-width:0.1;stroke-opacity:1"
       d="m 65.614912,89.12853 -1.366019,1.419251 5.553492,-0.0094 3.037805,1.577644 -3.146898,-2.584651 z"
       id="path79"
       sodipodi:nodetypes="cccccc" /><path
       style="opacity:1;fill:#aab686;fill-opacity:1;stroke:none;stroke-width:0.1;stroke-opacity:1"
       d="M 69.559024,88.415235 Z"
       id="path80" /><path
       style="opacity:1;fill:#aab686;fill-opacity:1;stroke:none;stroke-width:0.1;stroke-opacity:1"
       d="m 65.652083,91.310038 0.474707,3.228012 1.827626,1.257975 0.0712,-2.587157 z"
       id="path81" /><path
       style="opacity:1;fill:#aab686;fill-opacity:1;stroke:none;stroke-width:0.1;stroke-opacity:1"
       d="m 71.396047,91.45245 -0.189884,1.234239 -1.044358,1.732685 1.447861,2.966924 0.783267,-2.58716 -1.163034,-2.088713 z"
       id="path82" /><path
       style="opacity:1;fill:#aab686;fill-opacity:1;stroke:none;stroke-width:0.1;stroke-opacity:1"
       d="m 73.318612,92.211982 1.40039,-0.427236 1.661477,-1.09183 3.299217,0.996887 -1.827623,1.210505 -3.156807,-0.996886 z"
       id="path83" /><path
       style="opacity:1;fill:#aab686;fill-opacity:1;stroke:none;stroke-width:0.1;stroke-opacity:1"
       d="m 74.386706,96.057116 -0.854474,3.678983 1.28171,2.563421 1.281711,-2.895716 z"
       id="path84" /><path
       style="opacity:1;fill:#aab686;fill-opacity:1;stroke:none;stroke-width:0.1;stroke-opacity:1"
       d="m 69.236126,100.85166 -0.830739,2.44475 1.044358,1.70895 0.735796,-2.15993 z"
       id="path85" /><path
       style="opacity:1;fill:#aab686;fill-opacity:1;stroke:none;stroke-width:0.1;stroke-opacity:1"
       d="m 76.950127,96.057116 3.061864,0.118676 1.49533,2.539685 -2.658361,-0.284824 z"
       id="path86" /><path
       style="opacity:1;fill:#aab686;fill-opacity:1;stroke:none;stroke-width:0.1;stroke-opacity:1"
       d="m 150.95707,134.36603 1.32918,3.25175 2.89571,1.42412 -0.68832,-2.72957 z"
       id="path87" /><path
       style="opacity:1;fill:#aab686;fill-opacity:1;stroke:none;stroke-width:0.1;stroke-opacity:1"
       d="m 157.03333,133.22673 0.0237,2.23113 1.49533,2.15992 2.20739,0.75953 0.18988,-1.89883 -2.11245,-2.6821 z"
       id="path88" /><path
       style="opacity:1;fill:#aab686;fill-opacity:1;stroke:none;stroke-width:0.1;stroke-opacity:1"
       d="m 160.1664,130.9244 0.0949,-1.66148 2.56342,-2.30233 2.18366,-0.35603 0.0237,1.59027 -2.77704,2.51595 z"
       id="path89" /><path
       style="opacity:1;fill:#aab686;fill-opacity:1;stroke:none;stroke-width:0.1;stroke-opacity:1"
       d="m 153.44928,130.61584 1.16304,-0.14241 2.32607,-2.44475 0.26108,-2.3498 -1.9463,0.26109 -1.80389,2.3498 z"
       id="path90" /><path
       style="opacity:1;fill:#aab686;fill-opacity:1;stroke:none;stroke-width:0.1;stroke-opacity:1"
       d="m 80.391758,72.606553 0.356032,1.447858 1.661477,0.878207 1.80389,0.04747 -0.403503,-1.257975 -2.112449,-1.139298 z"
       id="path91" /><path
       style="opacity:1;fill:#aab686;fill-opacity:1;stroke:none;stroke-width:0.1;stroke-opacity:1"
       d="m 81.080085,76.522891 -2.46848,1.068091 -0.92568,1.732685 -0.09494,1.044356 1.376654,0.142412 2.064978,-2.11245 z"
       id="path92" /><path
       style="opacity:1;fill:#aab686;fill-opacity:1;stroke:none;stroke-width:0.1;stroke-opacity:1"
       d="m 72.250521,81.958295 0.450972,-3.109335 2.254861,-1.49533 0.07121,2.349802 z"
       id="path93" /><path
       style="opacity:1;fill:#aab686;fill-opacity:1;stroke:none;stroke-width:0.1;stroke-opacity:1"
       d="m 66.648969,84.640392 0.237353,-2.46848 2.634628,-2.159921 -0.213617,2.421012 z"
       id="path94" /><path
       style="opacity:1;fill:#aab686;fill-opacity:1;stroke:none;stroke-width:0.1;stroke-opacity:1"
       d="m 73.817056,84.379304 0.142412,1.281711 1.495329,1.400386 2.231128,0.474711 -0.166147,-1.424126 -1.970037,-1.68521 z"
       id="path95" /><path
       style="opacity:1;fill:#aab686;fill-opacity:1;stroke:none;stroke-width:0.1;stroke-opacity:1"
       d="m 78.041954,83.145063 0.261091,1.091829 1.685213,1.851359 2.017506,0.427238 0.04747,-1.614006 -1.851361,-1.614008 z"
       id="path96" /><path
       style="opacity:1;fill:#aab686;fill-opacity:1;stroke:none;stroke-width:0.1;stroke-opacity:1"
       d="m 68.785154,88.461791 0.688327,-1.020623 3.773927,0.02373 -1.281713,1.708949 -2.349802,0.166147 z"
       id="path97" /><path
       style="opacity:1;fill:#aab686;fill-opacity:1;stroke:none;stroke-width:0.1;stroke-opacity:1"
       d="m 81.388645,81.697205 1.946301,-1.269844 2.064981,-0.0356 2.017506,1.103696 -1.685211,1.376654 h -2.361671 z"
       id="path98" /><path
       style="opacity:1;fill:#aab686;fill-opacity:1;stroke:none;stroke-width:0.1;stroke-opacity:1"
       d="m 92.216686,77.086403 -2.165064,1.636388 -0.411195,2.609826 2.509126,-1.510512 z"
       id="path99" /><path
       style="opacity:1;fill:#aab686;fill-opacity:1;stroke:none;stroke-width:0.1;stroke-opacity:1"
       d="m 93.398752,82.195648 -2.183657,0.450972 -1.234239,3.038131 3.014393,-1.020623 z"
       id="path100" /><path
       style="opacity:1;fill:#aab686;fill-opacity:1;stroke:none;stroke-width:0.1;stroke-opacity:1"
       d="m 94.276962,86.20693 -2.2786,3.18054 1.044358,2.871983 1.875097,-1.993773 z"
       id="path101" /><path
       style="opacity:1;fill:#aab686;fill-opacity:1;stroke:none;stroke-width:0.1;stroke-opacity:1"
       d="m 95.321317,80.890202 0.901946,2.515952 2.159921,1.115562 -0.261091,-2.326068 z"
       id="path102" /><path
       style="opacity:1;fill:#aab686;fill-opacity:1;stroke:none;stroke-width:0.1;stroke-opacity:1"
       d="m 93.446223,75.122502 1.495327,1.542801 2.99066,0.04747 L 96.792911,74.719 Z"
       id="path103" /><path
       style="opacity:1;fill:#aab686;fill-opacity:1;stroke:none;stroke-width:0.1;stroke-opacity:1"
       d="m 72.476007,70.126203 0.379767,-2.064978 2.064978,-1.246108 0.189883,1.364785 -1.305446,1.471593 z"
       id="path104" /><path
       style="opacity:1;fill:#aab686;fill-opacity:1;stroke:none;stroke-width:0.1;stroke-opacity:1"
       d="m 77.908792,58.809223 0.973442,2.282549 3.390257,1.007007 -1.174843,-2.551086 z"
       id="path105" /><path
       style="opacity:1;fill:#aab686;fill-opacity:1;stroke:none;stroke-width:0.1;stroke-opacity:1"
       d="m 84.756441,57.768648 0.469937,2.752487 2.886753,1.443376 -0.704903,-2.81962 z"
       id="path106" /><path
       style="opacity:1;fill:#aab686;fill-opacity:1;stroke:none;stroke-width:0.1;stroke-opacity:1"
       d="m 90.966318,58.742087 0.06713,2.685354 2.148282,2.718919 0.167836,-3.826629 z"
       id="path107" /><path
       style="opacity:1;fill:#aab686;fill-opacity:1;stroke:none;stroke-width:0.1;stroke-opacity:1"
       d="m 97.109064,60.823236 -1.275543,1.64478 0.234969,2.215414 1.611212,1.678345 0.671338,-3.155289 z"
       id="path108" /><path
       style="opacity:1;fill:#aab686;fill-opacity:1;stroke:none;stroke-width:0.1;stroke-opacity:1"
       d="m 100.29792,61.830243 0.2014,2.181849 2.01402,2.316118 2.18184,0.503502 -0.1007,-1.577644 -1.57764,-2.584651 z"
       id="path109" /><path
       style="opacity:1;fill:#aab686;fill-opacity:1;stroke:none;stroke-width:0.1;stroke-opacity:1"
       d="m 102.58047,70.658341 0.4028,-1.678347 1.44338,-0.872739 1.24197,-0.268536 v 1.10771 l -1.4098,1.544076 z"
       id="path110" /><path
       style="opacity:1;fill:#aab686;fill-opacity:1;stroke:none;stroke-width:0.1;stroke-opacity:1"
       d="m 97.914668,58.607822 1.678347,-1.342679 2.215415,0.134268 2.38325,1.040575 -1.77905,1.443376 -2.618214,0.06714 z"
       id="path111" /><path
       style="opacity:1;fill:#aab686;fill-opacity:1;stroke:none;stroke-width:0.1;stroke-opacity:1"
       d="m 93.483836,55.653931 1.879748,-1.510509 2.584651,-0.335668 1.409812,0.604202 -0.805606,1.879748 -3.423825,0.302101 z"
       id="path112" /><path
       style="opacity:1;fill:#aab686;fill-opacity:1;stroke:none;stroke-width:0.1;stroke-opacity:1"
       d="m 88.616635,54.512656 0.671338,-2.114714 3.692361,-1.309108 -1.711912,2.92032 z"
       id="path113" /><path
       style="opacity:1;fill:#aab686;fill-opacity:1;stroke:none;stroke-width:0.1;stroke-opacity:1"
       d="m 107.75866,74.908885 1.28171,2.705833 2.65836,0.996887 -0.18988,-2.088714 -2.42101,-1.75642 z"
       id="path114" /><path
       style="opacity:1;fill:#aab686;fill-opacity:1;stroke:none;stroke-width:0.1;stroke-opacity:1"
       d="m 115.9711,74.339235 1.32919,2.041244 3.79766,0.854472 -2.23113,-2.753304 z"
       id="path115" /><path
       style="opacity:1;fill:#aab686;fill-opacity:1;stroke:none;stroke-width:0.1;stroke-opacity:1"
       d="m 110.79679,71.633399 0.56965,-2.326066 2.65836,-1.139298 -0.94941,2.800776 z"
       id="path116" /><path
       style="opacity:1;fill:#aab686;fill-opacity:1;stroke:none;stroke-width:0.1;stroke-opacity:1"
       d="m 119.389,70.351689 0.28483,-2.136185 1.75641,-1.708947 1.56654,-0.427238 -0.37977,2.421011 -1.42412,1.424123 z"
       id="path117" /><path
       style="opacity:1;fill:#aab686;fill-opacity:1;stroke:none;stroke-width:0.1;stroke-opacity:1"
       d="m 123.9462,71.823283 2.27859,-0.854472 3.56031,1.708946 -3.75019,1.139299 z"
       id="path118" /><path
       style="opacity:1;fill:#aab686;fill-opacity:1;stroke:none;stroke-width:0.1;stroke-opacity:1"
       d="m 124.04114,60.857534 -0.66459,2.231128 1.23424,2.468481 1.1393,0.284823 0.14241,-3.65525 z"
       id="path119" /><path
       style="opacity:1;fill:#aab686;fill-opacity:1;stroke:none;stroke-width:0.1;stroke-opacity:1"
       d="m 122.56954,58.816292 -2.04124,1.234239 -1.04436,2.088713 0.3323,1.70895 1.42412,-0.569651 1.37665,-1.89883 z"
       id="path120" /><path
       style="opacity:1;fill:#aab686;fill-opacity:1;stroke:none;stroke-width:0.1;stroke-opacity:1"
       d="m 128.17109,68.262975 0.37977,-1.803889 2.04124,-1.566534 1.80389,0.09494 -0.71206,1.993773 -1.66147,1.044355 z"
       id="path121" /><path
       style="opacity:1;fill:#aab686;fill-opacity:1;stroke:none;stroke-width:0.1;stroke-opacity:1"
       d="m 121.76254,54.354039 -2.13619,0.71206 -0.71206,1.18677 -0.28482,2.088713 1.75642,-0.474707 1.42412,-2.278597 z"
       id="path122" /><path
       style="opacity:1;fill:#aab686;fill-opacity:1;stroke:none;stroke-width:0.1;stroke-opacity:1"
       d="m 118.86682,49.844314 -1.51906,1.329182 -0.28483,1.756418 0.28483,1.898832 1.99377,-1.044358 0.23735,-2.515949 z"
       id="path123" /><path
       style="opacity:1;fill:#aab686;fill-opacity:1;stroke:none;stroke-width:0.1;stroke-opacity:1"
       d="m 123.23413,51.93303 0.90195,1.661475 1.99377,1.091829 1.99377,0.09494 -1.18677,-2.088714 -1.89883,-0.854474 z"
       id="path124" /><path
       style="opacity:1;fill:#aab686;fill-opacity:1;stroke:none;stroke-width:0.1;stroke-opacity:1"
       d="m 125.13296,56.537693 1.61401,0.09494 1.99378,1.424122 0.61711,1.898833 -2.18365,-0.332296 -1.99377,-1.661477 z"
       id="path125" /><path
       style="opacity:1;fill:#aab686;fill-opacity:1;stroke:none;stroke-width:0.1;stroke-opacity:1"
       d="m 101.82482,49.274666 0.23735,1.28171 1.614,1.566535 2.51596,0.56965 -0.80701,-2.088713 -1.614,-1.424125 z"
       id="path126" /><path
       style="opacity:1;fill:#aab686;fill-opacity:1;stroke:none;stroke-width:0.1;stroke-opacity:1"
       d="m 135.76642,57.985553 -0.28483,2.20739 0.7358,1.898833 1.59027,1.115562 -0.11867,-3.560307 z"
       id="path127" /><path
       style="opacity:1;fill:#aab686;fill-opacity:1;stroke:none;stroke-width:0.1;stroke-opacity:1"
       d="m 139.39793,57.914346 0.16615,1.329182 2.99066,2.610893 2.25486,0.427235 -0.45097,-1.780153 -1.68521,-2.041242 z"
       id="path128" /><path
       style="opacity:1;fill:#aab686;fill-opacity:1;stroke:none;stroke-width:0.1;stroke-opacity:1"
       d="m 135.93257,54.330303 1.25797,-1.400389 2.51595,-0.09494 1.32919,0.61712 -1.40039,1.352917 -2.75331,-0.04747 z"
       id="path129" /><path
       style="opacity:1;fill:#aab686;fill-opacity:1;stroke:none;stroke-width:0.1;stroke-opacity:1"
       d="m 131.61273,54.757539 -0.42724,2.46848 1.89883,3.133072 0.61712,-3.489103 z"
       id="path130" /><path
       style="opacity:1;fill:#aab686;fill-opacity:1;stroke:none;stroke-width:0.1;stroke-opacity:1"
       d="m 130.9244,51.220967 1.44786,-1.424122 2.04124,-0.09494 1.25798,0.30856 -0.87821,1.614005 -2.99066,0.308563 z"
       id="path131" /><image
       width="183.79723"
       height="183.79723"
       preserveAspectRatio="none"
       xlink:href="8cca8ff66bb0bf7a4a9a1b4588c2bd8d.jpg"
       id="image1-8"
       x="15.357998"
       y="20.877508"
       style="opacity:0" /><path
       style="opacity:0.313158;fill:none;stroke:none;stroke-width:0.1;stroke-opacity:1"
       d="m 160.24842,99.962249 0.73847,-3.558093 3.89376,-1.544076 -1.47695,3.759493 z"
       id="path3" /><path
       style="opacity:0.313158;fill:none;stroke:none;stroke-width:0.1;stroke-opacity:1"
       d="m 157.69733,104.59448 -3.02102,-4.699364 -3.28956,-1.141275 0.93987,3.960899 z"
       id="path4" /><path
       style="opacity:0.313158;fill:none;stroke:none;stroke-width:0.1;stroke-opacity:1"
       d="m 157.8316,86.535486 2.08115,3.625226 7.18331,2.752487 -2.55108,-6.84765 -5.97491,-2.148281 -2.48395,0.402804 z"
       id="path5" /><path
       style="opacity:0.313158;fill:none;stroke:none;stroke-width:0.1;stroke-opacity:1"
       d="m 157.02599,82.171788 2.41682,-5.706372 6.04204,-3.558093 2.41682,3.826626 0.13427,2.483951 -3.9609,4.095163 z"
       id="path6" /><path
       style="opacity:0.313158;fill:none;stroke:none;stroke-width:0.1;stroke-opacity:1"
       d="m 153.53503,82.104655 -3.69236,-3.222424 -1.27554,-6.579113 1.67835,0.671338 1.007,-2.618219 5.10217,3.893762 -0.53707,8.190325 z"
       id="path7" /><path
       style="opacity:0.313158;fill:none;stroke:none;stroke-width:0.1;stroke-opacity:1"
       d="m 152.72943,85.595612 -6.84765,2.551086 -4.5651,-1.678344 1.67834,-1.275543 -0.26853,-1.208408 5.90778,-2.551086 5.63923,2.551086 -1.94688,2.148282 z"
       id="path8" /><path
       style="opacity:1;fill:none;stroke:none;stroke-width:0.1;stroke-opacity:1"
       d="m 152.39376,88.952304 -0.26854,5.169305 1.81262,4.095163 3.08815,-4.833636 -1.14127,-5.907775 -0.60421,-1.879749 z"
       id="path9" /><path
       style="opacity:1;fill:none;stroke:none;stroke-width:0.1;stroke-opacity:1"
       d="m 152.62873,88.683768 0.8056,5.035037 1.30911,1.107707 2.01402,-2.483951 0.2014,1.040575 -2.98746,4.632232 -1.77904,-3.793058 z"
       id="path10" /><path
       style="opacity:1;fill:none;stroke:none;stroke-width:0.1;stroke-opacity:1"
       d="m 158.26797,87.106124 3.59166,2.349682 3.99446,0.268537 1.10771,3.054588 -7.04905,-2.718919 z"
       id="path11" /><path
       style="opacity:1;fill:none;stroke:none;stroke-width:0.1;stroke-opacity:1"
       d="m 160.68478,82.60816 2.85319,-1.711913 1.27555,-2.987455 3.02102,0.1007 0.0671,1.241976 -3.92733,4.061595 z"
       id="path12" /><path
       style="opacity:1;fill:none;stroke:none;stroke-width:0.1;stroke-opacity:1"
       d="m 142.99502,84.857142 3.32313,1.711912 6.34414,-0.939874 -6.04204,3.054588 -5.40427,-2.215414 z"
       id="path13" /><path
       style="opacity:1;fill:none;stroke:none;stroke-width:0.1;stroke-opacity:1"
       d="m 144.4384,76.633249 -1.87975,-1.07414 -0.2014,-1.779047 1.71192,1.074142 0.3021,2.047581 z"
       id="path14" /><path
       style="opacity:1;fill:none;stroke:none;stroke-width:0.1;stroke-opacity:1"
       d="m 143.9349,79.520004 2.45038,-1.141275 2.01402,1.342676 -2.68535,0.939874 z"
       id="path15" /><path
       style="opacity:1;fill:none;stroke:none;stroke-width:0.1;stroke-opacity:1"
       d="m 150.24548,72.907323 0.23497,3.826626 2.68535,5.068605 -3.32313,-2.920323 -1.27554,-6.545545 z"
       id="path16" /><path
       style="opacity:0;fill:#f7d31a;fill-opacity:1;stroke:#000000;stroke-width:0.0479498;stroke-opacity:1"
       d="m 581.39375,368.66411 c -0.30571,-0.65653 -1.76229,-3.76354 -3.23685,-6.90447 l -2.68102,-5.71077 0.72318,-9.22009 c 0.39775,-5.07105 0.74224,-9.20103 0.76553,-9.17774 0.0233,0.0233 0.63814,3.76443 1.36633,8.31364 0.72819,4.54921 1.35576,8.32271 1.39461,8.38556 0.0388,0.0629 1.22232,1.08807 2.62996,2.27827 2.034,1.71981 2.58596,2.12762 2.68906,1.98678 0.46399,-0.63381 7.24135,-8.94105 7.27068,-8.91191 0.02,0.0199 0.17185,0.74292 0.33741,1.60674 l 0.30101,1.57059 -5.39492,8.37322 c -2.96721,4.60528 -5.44313,8.42512 -5.50204,8.48855 -0.0606,0.0653 -0.34829,-0.40264 -0.66294,-1.07837 z"
       id="path17"
       transform="scale(0.26458333)" /><path
       style="opacity:1;fill:#f7d31a;fill-opacity:1;stroke:none;stroke-width:0.0479498;stroke-opacity:1"
       d="m 581.39375,368.66411 c -0.30571,-0.65653 -1.76229,-3.76354 -3.23685,-6.90447 l -2.68102,-5.71077 0.72318,-9.22009 c 0.39775,-5.07105 0.74224,-9.20103 0.76553,-9.17774 0.0233,0.0233 0.63814,3.76443 1.36633,8.31364 0.72819,4.54921 1.35576,8.32271 1.39461,8.38556 0.0388,0.0629 1.22232,1.08807 2.62996,2.27827 2.034,1.71981 2.58596,2.12762 2.68906,1.98678 0.46399,-0.63381 7.24135,-8.94105 7.27068,-8.91191 0.02,0.0199 0.17185,0.74292 0.33741,1.60674 l 0.30101,1.57059 -5.39492,8.37322 c -2.96721,4.60528 -5.44313,8.42512 -5.50204,8.48855 -0.0606,0.0653 -0.34829,-0.40264 -0.66294,-1.07837 z"
       id="path18"
       transform="scale(0.26458333)" /><path
       style="opacity:1;fill:#f7d31a;fill-opacity:1;stroke:none;stroke-width:0.0479498;stroke-opacity:1"
       d="m 617.46285,345.15441 -12.87611,-4.97734 -2.77375,-4.97872 c -1.52557,-2.73829 -2.75341,-4.99561 -2.72855,-5.01627 0.0249,-0.0206 2.85568,1.80557 6.2907,4.05827 l 6.24548,4.09583 7.50184,0.50941 c 4.12601,0.28018 7.51761,0.52692 7.53687,0.54831 0.0453,0.0503 3.86992,10.62749 3.86992,10.70246 0,0.0312 -0.0428,0.0519 -0.0952,0.046 -0.0523,-0.006 -5.8894,-2.25046 -12.97125,-4.988 z"
       id="path19"
       transform="scale(0.26458333)" /><path
       style="opacity:1;fill:#f7d31a;fill-opacity:1;stroke:none;stroke-width:0.0479498;stroke-opacity:1"
       d="m 613.62452,313.32054 c -2.98279,-0.64029 -5.4234,-1.19909 -5.42357,-1.24179 -1.6e-4,-0.0427 2.27132,-1.43925 5.04775,-3.10345 l 5.04806,-3.0258 2.4011,-5.61867 c 2.04421,-4.7835 2.43946,-5.6185 2.65912,-5.61754 1.02605,0.005 10.64598,0.38549 10.68361,0.42312 0.0261,0.0261 0.10469,1.00019 0.17456,2.16456 l 0.12704,2.11705 -7.30696,7.5427 c -6.18199,6.38145 -7.35933,7.54126 -7.6472,7.53334 -0.18713,-0.005 -2.78072,-0.53324 -5.76351,-1.17352 z"
       id="path20"
       transform="scale(0.26458333)" /><path
       style="opacity:1;fill:#f7d31a;fill-opacity:1;stroke:none;stroke-width:0.0479498;stroke-opacity:1"
       d="m 572.8501,303.48915 c -2.52191,-2.21071 -4.96903,-4.36201 -5.43805,-4.78067 l -0.85275,-0.76121 -2.32992,-11.98893 c -1.28146,-6.59392 -2.33111,-12.02868 -2.33256,-12.07726 -0.004,-0.12034 1.05821,0.25184 3.57479,1.25301 l 2.11845,0.84279 0.0693,0.64553 c 0.0381,0.35504 0.24345,3.53892 0.45635,7.07527 l 0.3871,6.42974 4.56018,8.60401 c 2.5081,4.7322 4.56075,8.64682 4.56146,8.69916 7e-4,0.0523 -0.0415,0.0913 -0.0939,0.0866 -0.0523,-0.005 -2.15853,-1.81733 -4.68044,-4.02803 z"
       id="path21"
       transform="scale(0.26458333)" /><path
       style="opacity:1;fill:#f7d31a;fill-opacity:1;stroke:none;stroke-width:0.0479498;stroke-opacity:1"
       d="m 547.7661,302.64342 c -1.66054,-1.06536 -3.01326,-1.98693 -3.00604,-2.04792 0.0135,-0.11371 8.21209,-3.98033 8.43973,-3.98033 0.13146,0 7.07171,4.58653 7.01434,4.63549 -0.018,0.0153 -2.01887,0.72216 -4.44646,1.57074 -2.42759,0.84858 -4.54173,1.59151 -4.6981,1.65096 -0.23834,0.0906 -0.77226,-0.20498 -3.30347,-1.82894 z"
       id="path22"
       transform="scale(0.26458333)" /><path
       style="opacity:1;fill:#f7d31a;fill-opacity:1;stroke:#000000;stroke-width:0.0479498;stroke-opacity:1"
       d="m 550.6989,333.49214 c -1.86613,-0.76888 -3.36737,-1.42355 -3.33609,-1.45483 0.0313,-0.0313 0.94691,0.26816 2.03475,0.66542 l 1.97788,0.72228 10.27666,-3.83031 c 5.65216,-2.10668 10.29745,-3.80925 10.32288,-3.7835 0.0254,0.0258 -3.98789,2.07904 -8.91846,4.56287 l -8.96467,4.51604 z"
       id="path23"
       transform="scale(0.26458333)" /><path
       style="opacity:1;fill:#f7d31a;fill-opacity:1;stroke:none;stroke-width:0.0479498;stroke-opacity:1"
       d="m 543.0227,329.82297 c -4.55294,-1.67985 -8.27497,-3.0879 -8.27119,-3.12901 0.004,-0.0411 1.33114,-1.07575 2.94966,-2.2992 l 2.94277,-2.22448 -0.041,-0.54094 -0.041,-0.54095 0.99246,0.50063 c 0.54585,0.27534 3.33316,1.70849 6.19401,3.18476 l 5.20155,2.68414 10.37786,-1.53784 c 5.70783,-0.84582 10.43382,-1.5192 10.5022,-1.4964 0.0931,0.031 -19.13114,10.19887 -19.8017,10.38482 -0.0698,0.0193 -8.41921,-2.98851 -11.44974,-4.9221 z"
       id="path24"
       transform="scale(0.26458333)"
       sodipodi:nodetypes="ccscccsscssscc" /><path
       style="opacity:1;fill:#f7d31a;fill-opacity:1;stroke:none;stroke-width:0.0479498;stroke-opacity:1"
       d="m 542.10196,287.15494 c -2.53511,-1.448 -2.99304,-1.75451 -3.06586,-2.05205 -0.14259,-0.58272 -0.65251,-5.49002 -0.57819,-5.56434 0.0381,-0.0381 1.3574,0.73914 2.9318,1.72718 2.59422,1.62805 2.86944,1.83406 2.9362,2.19787 0.12509,0.68164 0.80091,5.34791 0.77796,5.37143 -0.0119,0.0122 -1.36277,-0.74384 -3.00191,-1.68009 z"
       id="path25"
       transform="scale(0.26458333)" /><path
       style="opacity:0;fill:#f4ecdc;fill-opacity:1;stroke:#000000;stroke-width:0.0958995;stroke-opacity:1"
       d="m 582.45716,355.92552 c -1.20379,-1.01177 -2.24109,-2.06794 -2.30512,-2.34704 -0.064,-0.27911 -0.74879,-4.48666 -1.52169,-9.35011 -1.1676,-7.34707 -1.34994,-8.91335 -1.0781,-9.26071 0.17995,-0.22994 2.32497,-2.74655 4.76672,-5.59247 l 4.43955,-5.17439 1.06424,3.31551 c 1.01544,3.16346 4.52135,20.1644 4.34048,21.04797 -0.0851,0.41562 -7.08936,9.17649 -7.34833,9.1912 -0.093,0.005 -1.15397,-0.8182 -2.35775,-1.82996 z"
       id="path26"
       transform="scale(0.26458333)" /><path
       style="opacity:0;fill:#f4ecdc;fill-opacity:1;stroke:#000000;stroke-width:0.0958995;stroke-opacity:1"
       d="m 618.09628,338.23279 -6.21649,-0.44182 -6.77791,-4.45149 c -3.72786,-2.44831 -6.87268,-4.49096 -6.9885,-4.53921 -0.11582,-0.0483 -0.48795,-0.54446 -0.82697,-1.10267 -0.33902,-0.55822 -1.96979,-2.72501 -3.62394,-4.81509 -2.57275,-3.25078 -2.9406,-3.82664 -2.54447,-3.9833 0.47725,-0.18876 6.54987,-1.19673 7.71474,-1.28055 0.70485,-0.0507 22.24868,7.55771 22.71726,8.02284 0.23106,0.22935 4.91951,12.59797 4.91951,12.97818 0,0.17098 -1.49793,0.10176 -8.37323,-0.38689 z"
       id="path27"
       transform="scale(0.26458333)" /><path
       style="opacity:0;fill:#f4ecdc;fill-opacity:1;stroke:#000000;stroke-width:0.0958995;stroke-opacity:1"
       d="m 599.99916,311.32848 c -3.18507,-0.53033 -5.83542,-1.00863 -5.88969,-1.06289 -0.13762,-0.13763 8.5022,-20.55648 8.8606,-20.94062 0.60152,-0.64471 22.31823,-13.27554 22.4939,-13.08286 0.10088,0.11066 2.12275,3.28407 4.49304,7.05202 l 4.30962,6.85082 0.14907,2.22354 0.14907,2.22355 -3.223,-0.13414 c -1.77264,-0.0738 -4.43644,-0.19065 -5.91954,-0.25972 l -2.69655,-0.12558 -2.35326,5.52133 c -1.29429,3.03673 -2.53572,5.70573 -2.75873,5.93111 -0.62157,0.62817 -11.09383,6.82532 -11.48195,6.79466 -0.18786,-0.0148 -2.94752,-0.46089 -6.13258,-0.99122 z"
       id="path28"
       transform="scale(0.26458333)" /><path
       style="opacity:0;fill:#f4ecdc;fill-opacity:1;stroke:#000000;stroke-width:0.0958995;stroke-opacity:1"
       d="m 584.47651,310.61441 c -3.58115,-0.52086 -4.14093,-0.66751 -4.7484,-1.24397 -0.37876,-0.35944 -2.93471,-4.8893 -5.67988,-10.06637 l -4.99123,-9.41286 -0.43805,-6.97768 -0.43804,-6.97769 1.64282,-4.31348 c 0.90355,-2.37241 1.71672,-4.50965 1.80705,-4.74941 0.13323,-0.35364 1.86405,0.85907 9.16919,6.42446 4.95273,3.77322 9.19099,7.05226 9.41837,7.28675 0.38225,0.39422 0.341,1.5166 -0.54721,14.88921 -0.52835,7.95456 -0.99984,14.74829 -1.04775,15.09717 l -0.0871,0.63434 z"
       id="path29"
       transform="scale(0.26458333)" /><path
       style="opacity:1;fill:#f4ecdc;fill-opacity:1;stroke:none;stroke-width:0.0958995;stroke-opacity:1"
       d="m 546.73673,323.56926 c -3.45221,-1.77647 -6.32608,-3.35808 -6.38637,-3.51468 -0.0603,-0.1566 -0.18298,-0.78459 -0.27264,-1.39554 l -0.16302,-1.11081 10.75634,-4.63065 c 5.91599,-2.54685 10.90572,-4.63064 11.0883,-4.63064 0.24388,0 20.48147,9.00773 20.7274,9.22574 0.0904,0.0802 -4.82399,5.38118 -5.17824,5.58561 -0.3139,0.18114 -23.19619,3.70442 -24.04128,3.70174 -0.13956,-4.5e-4 -3.07827,-1.45429 -6.53049,-3.23077 z"
       id="path30"
       transform="scale(0.26458333)" /><path
       style="opacity:1;fill:#f4ecdc;fill-opacity:1;stroke:none;stroke-width:0.0958995;stroke-opacity:1"
       d="m 582.45716,355.92552 c -1.20379,-1.01177 -2.24109,-2.06794 -2.30512,-2.34704 -0.064,-0.27911 -0.74879,-4.48666 -1.52169,-9.35011 -1.1676,-7.34707 -1.34994,-8.91335 -1.0781,-9.26071 0.17995,-0.22994 2.32497,-2.74655 4.76672,-5.59247 l 4.43955,-5.17439 1.06424,3.31551 c 1.01544,3.16346 4.52135,20.1644 4.34048,21.04797 -0.0851,0.41562 -7.08936,9.17649 -7.34833,9.1912 -0.093,0.005 -1.15397,-0.8182 -2.35775,-1.82996 z"
       id="path31"
       transform="scale(0.26458333)" /><path
       style="opacity:1;fill:#f4ecdc;fill-opacity:1;stroke:none;stroke-width:0.0958995;stroke-opacity:1"
       d="m 618.09628,338.23279 -6.21649,-0.44182 -6.77791,-4.45149 c -3.72786,-2.44831 -6.87268,-4.49096 -6.9885,-4.53921 -0.11582,-0.0483 -0.48795,-0.54446 -0.82697,-1.10267 -0.33902,-0.55822 -1.96979,-2.72501 -3.62394,-4.81509 -2.57275,-3.25078 -2.9406,-3.82664 -2.54447,-3.9833 0.47725,-0.18876 6.54987,-1.19673 7.71474,-1.28055 0.70485,-0.0507 22.24868,7.55771 22.71726,8.02284 0.23106,0.22935 4.91951,12.59797 4.91951,12.97818 0,0.17098 -1.49793,0.10176 -8.37323,-0.38689 z"
       id="path32"
       transform="scale(0.26458333)" /><path
       style="opacity:1;fill:#f4ecdc;fill-opacity:1;stroke:none;stroke-width:0.0958995;stroke-opacity:1"
       d="m 599.99916,311.32848 c -3.18507,-0.53033 -5.83542,-1.00863 -5.88969,-1.06289 -0.13762,-0.13763 8.5022,-20.55648 8.8606,-20.94062 0.60152,-0.64471 22.31823,-13.27554 22.4939,-13.08286 0.10088,0.11066 2.12275,3.28407 4.49304,7.05202 l 4.30962,6.85082 0.14907,2.22354 0.14907,2.22355 -3.223,-0.13414 c -1.77264,-0.0738 -4.43644,-0.19065 -5.91954,-0.25972 l -2.69655,-0.12558 -2.35326,5.52133 c -1.29429,3.03673 -2.53572,5.70573 -2.75873,5.93111 -0.62157,0.62817 -11.09383,6.82532 -11.48195,6.79466 -0.18786,-0.0148 -2.94752,-0.46089 -6.13258,-0.99122 z"
       id="path33"
       transform="scale(0.26458333)" /><path
       style="opacity:1;fill:#f4ecdc;fill-opacity:1;stroke:none;stroke-width:0.0958995;stroke-opacity:1"
       d="m 584.47651,310.61441 c -3.58115,-0.52086 -4.14093,-0.66751 -4.7484,-1.24397 -0.37876,-0.35944 -2.93471,-4.8893 -5.67988,-10.06637 l -4.99123,-9.41286 -0.43805,-6.97768 -0.43804,-6.97769 1.64282,-4.31348 c 0.90355,-2.37241 1.71672,-4.50965 1.80705,-4.74941 0.13323,-0.35364 1.86405,0.85907 9.16919,6.42446 4.95273,3.77322 9.19099,7.05226 9.41837,7.28675 0.38225,0.39422 0.341,1.5166 -0.54721,14.88921 -0.52835,7.95456 -0.99984,14.74829 -1.04775,15.09717 l -0.0871,0.63434 z"
       id="path34"
       transform="scale(0.26458333)" /><path
       style="opacity:1;fill:#f7d31a;fill-opacity:1;stroke:none;stroke-width:0.0678112;stroke-opacity:1"
       d="m 585.52773,391.35963 c -5.23001,-1.83459 -9.52237,-3.34338 -9.53857,-3.35287 -0.0549,-0.0322 -3.4084,-14.19085 -3.37319,-14.24174 0.0192,-0.0278 2.67499,0.86033 5.90169,1.97359 l 5.86672,2.02411 3.52215,5.47222 c 1.93718,3.00972 4.39249,6.82458 5.45625,8.47746 1.06377,1.65288 1.8756,3.0002 1.80408,2.99404 -0.0715,-0.006 -4.40913,-1.51222 -9.63913,-3.34681 z"
       id="path35"
       transform="scale(0.26458333)" /><path
       style="opacity:1;fill:#f7d31a;fill-opacity:1;stroke:none;stroke-width:0.0678112;stroke-opacity:1"
       d="m 606.12841,376.91375 c 0.0539,-0.22382 0.63721,-3.03093 1.29627,-6.23801 0.65907,-3.20708 1.2902,-5.92391 1.4025,-6.0374 0.25284,-0.2555 13.54546,-5.5304 13.65655,-5.41931 0.10733,0.10733 -4.91865,12.92149 -5.1767,13.19844 -0.11104,0.11917 -2.50292,1.19639 -5.31528,2.39382 -6.65762,2.83463 -5.98121,2.59209 -5.86334,2.10246 z"
       id="path36"
       transform="scale(0.26458333)" /><path
       style="opacity:0.876316;fill:#000000;fill-opacity:1;stroke:none;stroke-width:0.1;stroke-opacity:1"
       d="m 84.782804,126.10611 -0.09716,-1.5182 a 1.4390391,1.4390391 112.54908 0 1 0.487467,-1.174 l 4.807749,-4.21479 2.51595,-2.56342 1.424122,-2.80078 1.281713,-4.79455 1.163034,-1.9463 1.232268,-1.21742 a 5.1315828,5.1315828 146.77288 0 1 1.700688,-1.11405 l 2.834739,-1.1339 0.58082,-0.25345 a 2.1948507,2.1948507 136.61558 0 0 1.08117,-1.02186 l 0.78276,-1.5492 c 0.36566,-1.155121 0.75261,-2.310243 1.30545,-3.465364 1.0048,-1.001744 2.00959,-1.688126 3.01439,-1.993773 1.06177,-0.133026 1.4915,-0.514357 4.20116,0 1.09111,0.517172 2.17553,1.134593 3.20428,2.587157 0.67313,1.242027 0.54389,1.445698 0.7358,2.064977 l -0.16416,2.893183 a 1.9067687,1.9067687 106.64687 0 1 -0.25317,0.84671 l -1.17294,2.02781 -3.15681,2.25486 -2.15992,0.78327 -2.70584,-0.37977 -1.25797,-1.78015 0.11868,-2.32607 0.83073,-2.30233 0.99689,-1.09183 1.82763,-0.0237 -1.51907,0.35603 -1.04436,1.73268 -0.37976,1.56654 -0.0949,1.59027 0.56965,1.25797 0.75953,0.4035 1.99377,-0.16614 2.2786,-0.85448 1.78015,-1.40038 1.24114,-1.81714 c 0.14038,-0.20554 0.28075,-0.57225 0.30615,-0.81987 0.071,-0.69232 0.16859,-2.01996 -0.0285,-2.761006 -0.1778,-0.668617 -1.04411,-1.793814 -1.04411,-1.793814 l -2.01751,-1.59027 -3.06186,-0.213619 -2.34981,1.139301 -1.2105,2.468478 -1.1393,3.32295 -1.59027,1.18677 -3.821399,1.35292 c -1.091138,0.83316 -2.175504,1.76791 -3.204276,3.53657 l -0.925682,3.98755 -1.257974,2.65836 -2.310575,2.49144 a 4.4076743,4.4076743 139.40763 0 1 -0.765285,0.65575 l -3.142812,2.12207 -2.609744,2.29657 a 1.2058905,1.2058905 117.12046 0 0 -0.403514,0.78784 z"
       id="path37"
       sodipodi:nodetypes="ccccccccccccccccccccccccccccccccccccaccccccccccccccc"
       inkscape:path-effect="#path-effect50"
       inkscape:original-d="m 84.782804,126.10611 -0.142411,-2.22519 5.340463,-4.6818 2.51595,-2.56342 1.424122,-2.80078 1.281713,-4.79455 1.163034,-1.9463 1.970037,-1.9463 3.797658,-1.51907 1.30545,-0.56965 1.1393,-2.25486 c 0.36566,-1.155121 0.75261,-2.310243 1.30545,-3.465364 1.0048,-1.001744 2.00959,-1.688126 3.01439,-1.993773 1.06177,-0.133026 1.4915,-0.514357 4.20116,0 1.09111,0.517172 2.17553,1.134593 3.20428,2.587157 0.67313,1.242027 0.54389,1.445698 0.7358,2.064977 l -0.18989,3.346693 -1.40038,2.42101 -3.15681,2.25486 -2.15992,0.78327 -2.70584,-0.37977 -1.25797,-1.78015 0.11868,-2.32607 0.83073,-2.30233 0.99689,-1.09183 1.82763,-0.0237 -1.51907,0.35603 -1.04436,1.73268 -0.37976,1.56654 -0.0949,1.59027 0.56965,1.25797 0.75953,0.4035 1.99377,-0.16614 2.2786,-0.85448 1.78015,-1.40038 1.49533,-2.1893 c 0,0 0.29837,-2.17504 0.0235,-3.208716 -0.1778,-0.668617 -1.04411,-1.793814 -1.04411,-1.793814 l -2.01751,-1.59027 -3.06186,-0.213619 -2.34981,1.139301 -1.2105,2.468478 -1.1393,3.32295 -1.59027,1.18677 -3.821399,1.35292 c -1.091138,0.83316 -2.175504,1.76791 -3.204276,3.53657 l -0.925682,3.98755 -1.257974,2.65836 -2.655486,2.86335 -3.563186,2.40591 -2.966923,2.61089 z" /><path
       style="opacity:0.876316;fill:#000000;fill-opacity:1;stroke:none;stroke-width:0.1;stroke-opacity:1"
       d="m 88.5495,128.50251 v -2.31611 l 0.637773,-0.98183 1.669952,-1.34268 2.265767,-1.13289 1.669955,-0.99861 0.965047,-1.26715 0.73008,-1.50212 0.570638,-1.79583 0.570637,1.91331 0.679731,1.93849 0.797213,1.56086 1.032177,1.87975 0.19302,0.4028 -0.1007,0.39442 -1.074147,-0.35246 -1.661562,-0.18462 -2.635001,-0.0336 -1.174843,0.0336 -2.064364,1.02379 z"
       id="path43" /><path
       style="opacity:1;fill:none;fill-opacity:1;stroke:none;stroke-width:0.1;stroke-opacity:1"
       d="m 104.81547,106.50069 -1.51906,1.70894 0.0237,8.7821 -1.04436,2.63462 3.4179,-0.94941 2.2786,-2.80078 0.11867,-5.4354 c -1.66862,-0.0845 -3.05005,-0.78086 -3.27545,-3.94007 z"
       id="path44"
       sodipodi:nodetypes="cccccccc" /><path
       style="opacity:1;fill:#000000;fill-opacity:1;stroke:none;stroke-width:0.1;stroke-opacity:1"
       d="m 97.742326,111.60379 c 1.817186,7.72855 3.100514,16.03244 13.861464,14.12256 l 1.11557,-0.28483 0.75953,-0.90194 -0.21362,-0.85447 -1.25798,-0.87821 1.89884,0.56965 0.33229,1.51906 -1.30544,1.51906 -2.80078,0.78327 C 98.021638,127.42733 98.248889,116.75989 97.742326,111.60379 Z"
       id="path45"
       sodipodi:nodetypes="ccccccccccc" /><path
       style="opacity:1;fill:#8fae4d;fill-opacity:0.87843138;stroke:none;stroke-width:0.1;stroke-opacity:1"
       d="m 65.414728,127.93374 7.073146,3.53657 c -0.294155,0.0774 -1.572594,0.81105 -2.99066,1.63775 l 0.878211,0.8782 c 2.996805,-0.84137 5.229372,-0.51627 7.025674,0.47471 l 3.441631,0.66459 -3.322955,0.0712 -2.515949,-0.26109 -3.655251,0.0475 c -4.962102,-4.82239 -5.255362,-5.77632 -5.933847,-7.04943 z"
       id="path46"
       sodipodi:nodetypes="cccccccccc" /><path
       style="opacity:1;fill:#8fae4d;fill-opacity:0.878431;stroke:none;stroke-width:0.1;stroke-opacity:1"
       d="m 84.857142,136.55018 c 25.076998,9.88128 36.627278,4.89542 45.332108,2.40003 l 7.7036,0.1007 c -7.49406,4.666 -13.31311,10.10213 -31.36843,9.91238 -10.638365,-0.71587 -18.456079,-2.91474 -23.780473,-6.03454 -0.0017,-0.26216 8.347271,-0.0821 15.378146,1.71471 -8.797917,-3.0856 -19.607296,-6.24786 -26.393752,-9.25681 z"
       id="path47"
       sodipodi:nodetypes="cccccccc" /><path
       style="opacity:0.986842;fill:#8fae4d;fill-opacity:0.878431;stroke:none;stroke-width:0.1;stroke-opacity:1"
       d="m 131.94502,138.47225 1.18677,-0.78326 5.15058,0.0237 1.56654,-0.28483 -1.37666,1.0681 z"
       id="path48" /><path
       style="opacity:0.986842;fill:#8fae4d;fill-opacity:0.878431;stroke:none;stroke-width:0.1;stroke-opacity:1"
       d="m 135.00689,136.90572 5.4354,-2.89572 -1.04436,-0.30856 3.34669,-0.0949 0.68833,0.59338 -2.80078,2.58716 -2.96692,0.30856 z"
       id="path49" /><path
       style="opacity:0.986842;fill:#8fae4d;fill-opacity:0.878431;stroke:none;stroke-width:0.1;stroke-opacity:1"
       d="m 142.98197,132.4672 5.81518,-4.50972 c -1.50139,1.85676 -1.91233,3.08569 -4.72335,5.69649 -0.12883,-0.43834 -0.47088,-0.83791 -1.09183,-1.18677 z"
       id="path50"
       sodipodi:nodetypes="cccc" /><path
       style="opacity:0;fill:#000000;fill-opacity:1;stroke:none;stroke-width:0.0678112;stroke-opacity:1"
       d="m 387.18212,451.4898 c 0,-0.0797 0.80737,-2.18077 1.79417,-4.66905 l 1.79417,-4.52414 0.007,-16.65766 0.007,-16.65766 2.54948,-2.85504 c 1.40222,-1.57027 2.56451,-2.74096 2.58288,-2.60154 1.21025,9.18782 4.16593,13.01657 10.79687,13.98614 l 1.45981,0.21345 v 2.17091 c 0,1.19399 -0.087,5.71946 -0.19322,10.0566 l -0.19321,7.8857 -4.24736,5.23111 -4.24736,5.2311 -5.65164,1.56496 c -6.91247,1.91409 -6.45901,1.8 -6.45901,1.62512 z"
       id="path51"
       transform="scale(0.26458333)" /><path
       style="opacity:1;fill:#000000;fill-opacity:1;stroke:none;stroke-width:0.0678112;stroke-opacity:1"
       d="m 387.18212,451.4898 c 0,-0.0797 0.80737,-2.18077 1.79417,-4.66905 l 1.79417,-4.52414 0.007,-16.65766 0.007,-16.65766 2.54948,-2.85504 c 1.40222,-1.57027 2.56451,-2.74096 2.58288,-2.60154 1.21025,9.18782 4.16593,13.01657 10.79687,13.98614 l 1.45981,0.21345 v 2.17091 c 0,1.19399 -0.087,5.71946 -0.19322,10.0566 l -0.19321,7.8857 -4.24736,5.23111 -4.24736,5.2311 -5.65164,1.56496 c -6.91247,1.91409 -6.45901,1.8 -6.45901,1.62512 z"
       id="path52"
       transform="scale(0.26458333)" /><path
       style="opacity:1;fill:#000000;fill-opacity:1;stroke:none;stroke-width:0.1;stroke-opacity:1"
       d="m 103.24894,121.31157 4.36731,-3.15681 1.37665,-2.82451 0.28483,-4.46225 c 6.25132,8.69755 11.58132,12.85941 16.18753,13.45796 4.59099,0.42086 2.23866,-2.53514 1.18677,-2.94319 0.23581,-0.32317 2.29792,0.28978 2.23112,2.37354 -0.15985,0.84664 -0.84523,1.50754 -2.61089,1.66148 -3.14937,0.0648 -4.8656,-1.33346 -7.02567,-2.2786 -6.65219,-4.66033 -6.31932,-5.92251 -8.78209,-8.54474 -0.53801,1.89883 -1.39248,3.4179 -2.56343,4.5572 z"
       id="path53"
       sodipodi:nodetypes="cccccccccccc" /><path
       style="opacity:1;fill:#aab686;fill-opacity:1;stroke:none;stroke-width:0.1;stroke-opacity:1"
       d="m 96.437724,45.499943 0.637773,-3.423825 2.517518,-1.208408 -0.285319,2.483951 z"
       id="path54" /><path
       style="opacity:1;fill:#aab686;fill-opacity:1;stroke:none;stroke-width:0.1;stroke-opacity:1"
       d="m 110.15594,43.150935 -1.25798,-2.587157 0.92568,-2.658364 1.28171,2.634629 z"
       id="path55" /><path
       style="opacity:1;fill:#aab686;fill-opacity:1;stroke:none;stroke-width:0.1;stroke-opacity:1"
       d="m 113.2178,40.658719 -0.37977,-3.109336 1.85136,-1.89883 0.56965,3.39416 -0.85447,1.49533 z"
       id="path63" /><path
       style="opacity:1;fill:#aab686;fill-opacity:1;stroke:none;stroke-width:0.1;stroke-opacity:1"
       d="m 113.12286,44.266498 1.1393,-0.901944 1.85136,0.04747 1.614,1.09183 -1.51906,1.186767 -1.80389,-0.261088 z"
       id="path64" /><path
       style="opacity:1;fill:#aab686;fill-opacity:1;stroke:none;stroke-width:0.1;stroke-opacity:1"
       d="m 116.32714,41.726813 0.87821,-0.996887 3.1568,-0.04747 1.63774,0.735798 -1.47159,0.854472 -3.22801,0.332295 z"
       id="path65" /><path
       style="opacity:1;fill:#aab686;fill-opacity:1;stroke:none;stroke-width:0.1;stroke-opacity:1"
       d="m 117.46643,38.190238 1.30545,-2.064977 2.72957,-0.545915 -0.807,2.017509 -2.34981,1.115562 z"
       id="path66" /><path
       style="opacity:1;fill:#aab686;fill-opacity:1;stroke:none;stroke-width:0.1;stroke-opacity:1"
       d="m 81.697205,50.319021 0.237355,-3.109335 2.278597,-1.875095 0.09494,2.183654 z"
       id="path67" /><path
       style="opacity:1;fill:#aab686;fill-opacity:1;stroke:none;stroke-width:0.1;stroke-opacity:1"
       d="m 69.639629,57.89061 -0.996887,-2.326068 0.356029,-1.922566 1.447861,-1.400386 0.925679,1.637741 -0.403503,2.539685 z"
       id="path69" /><path
       style="opacity:1;fill:#aab686;fill-opacity:1;stroke:none;stroke-width:0.1;stroke-opacity:1"
       d="m 63.776986,63.373486 -1.020622,-2.041244 0.142415,-2.231126 1.803889,-1.851361 0.545912,1.80389 0.213619,1.471594 -0.545914,1.447858 z"
       id="path70" /><path
       style="opacity:1;fill:#aab686;fill-opacity:1;stroke:none;stroke-width:0.1;stroke-opacity:1"
       d="m 57.748198,63.634574 -0.759531,-1.044358 0.332295,-2.373537 2.278597,-1.89883 0.356032,1.99377 -0.308563,2.231128 z"
       id="path71" /><path
       style="opacity:1;fill:#aab686;fill-opacity:1;stroke:none;stroke-width:0.1;stroke-opacity:1"
       d="m 53.925236,58.053967 -1.090924,-2.248985 0.822388,-2.786052 0.721691,-0.822388 1.040572,1.460158 0.01677,2.366468 -0.855956,1.879748 z"
       id="path72" /><path
       style="opacity:1;fill:#aab686;fill-opacity:1;stroke:none;stroke-width:0.1;stroke-opacity:1"
       d="m 53.169981,62.283397 -2.786052,-1.460161 -2.987456,0.704906 1.829396,1.762262 z"
       id="path73" /><path
       style="opacity:1;fill:#aab686;fill-opacity:1;stroke:none;stroke-width:0.1;stroke-opacity:1"
       d="m 55.368613,68.241523 -2.416816,-2.030799 -3.524527,0.05035 0.772041,1.325894 2.48395,1.023792 z"
       id="path132" /><path
       style="opacity:1;fill:#020202;fill-opacity:0.964706;stroke:#000000;stroke-width:0.1;stroke-opacity:1"
       d="m 73.603436,129.02557 3.20764,0.1349 a 14.868037,14.868037 9.5897121 0 1 3.665435,0.61929 l 3.783673,1.14028 a 7.4670765,7.4670765 6.0522048 0 0 2.762155,0.29286 l 2.080307,-0.16982 4.713485,-2.65453 a 7.5632675,7.5632675 166.38399 0 1 3.995789,-0.96786 l 0.220372,0.008 a 12.976953,12.976953 11.180796 0 1 3.994268,0.7895 l 3.79436,1.39653 a 6.6200979,6.6200979 10.103207 0 0 2.2866,0.40744 7.5795108,7.5795108 162.36078 0 0 3.32747,-1.05804 l 4.36939,-2.19122 a 7.5012986,7.5012986 165.74947 0 1 3.11821,-0.79195 l 1.28869,-0.042 a 4.5229715,4.5229715 15.715875 0 1 2.63058,0.74021 l 1.22301,0.80335 2.14922,0.20298 a 7.8899449,7.8899449 170.26999 0 0 4.05821,-0.69587 6.7632715,6.7632715 168.98465 0 1 2.95215,-0.57466 l 1.91331,0.028 a 3.2631908,3.2631908 22.459593 0 1 2.22237,0.9187 l 0.54706,0.52978 a 3.0836817,3.0836817 63.448295 0 1 0.91424,1.82955 l 0.0418,0.33157 a 2.8855342,2.8855342 109.15692 0 1 -0.84032,2.4189 l -0.45252,0.44472 a 5.5002768,5.5002768 153.59248 0 1 -3.06008,1.51954 l -2.04067,0.29818 a 2.8550442,2.8550442 17.706932 0 1 -2.38626,-0.76187 l -1.17649,-1.12534 0.37977,-2.94318 1.73268,-1.70895 2.2786,-0.18988 0.45097,0.52218 -0.0712,1.11556 0.61712,-1.11556 -1.1393,-0.99689 -2.49221,0.33229 -1.80389,1.51907 -0.4035,3.37042 -2.11245,-1.78015 -0.8892,-1.38482 a 5.6030854,5.6030854 46.839808 0 0 -1.39106,-1.48339 2.7657839,2.7657839 7.8409324 0 0 -1.92733,-0.26541 l -1.70252,0.14296 2.18365,0.71206 3.37043,3.72646 3.01439,2.32607 2.30234,1.18676 h 3.44163 l 2.11245,-0.68832 2.3498,-1.51907 3.4179,-0.11867 0.71206,0.61712 0.71206,-0.54592 -1.16304,-1.23424 -2.84824,0.11868 v -2.50859 a 3.3818218,3.3818218 67.399462 0 0 -0.99892,-2.39968 l -1.18668,-1.17838 a 4.333065,4.333065 23.340616 0 0 -2.91084,-1.25605 l -2.01831,-0.0663 a 7.3831697,7.3831697 171.62724 0 0 -2.60084,0.38279 l -1.44414,0.48679 a 7.9728246,7.9728246 172.71085 0 1 -3.1097,0.39776 5.407009,5.407009 18.872643 0 1 -2.31477,-0.79129 l -0.69564,-0.40484 a 4.2184651,4.2184651 15.260623 0 0 -2.09805,-0.57241 l -2.22146,-0.0125 a 3.6287868,3.6287868 167.07506 0 0 -1.62107,0.37202 l -5.95222,2.92538 a 7.0062748,7.0062748 168.41007 0 1 -3.45621,0.70883 12.890869,12.890869 12.86516 0 1 -3.90185,-0.89115 l -2.54975,-0.97133 a 7.7973763,7.7973763 10.427242 0 0 -2.775836,-0.51083 l -0.466736,0 a 6.7559869,6.7559869 165.82713 0 0 -3.207681,0.81005 l -4.924767,2.65679 a 4.0376926,4.0376926 164.17619 0 1 -1.684501,0.47742 l -1.371073,0.0791 a 8.2579024,8.2579024 6.581519 0 1 -2.816153,-0.32492 l -3.40594,-1.00662 a 6.2641874,6.2641874 6.3014949 0 0 -2.197357,-0.24264 z"
       id="path133"
       inkscape:path-effect="#path-effect133"
       inkscape:original-d="m 73.603436,129.02557 5.079373,0.21362 6.930734,2.08871 3.489103,-0.28482 6.574703,-3.70272 4.414781,0.16614 6.83579,2.51595 h 2.39728 l 7.95135,-3.98754 4.36731,-0.14241 2.42101,1.59027 4.27237,0.4035 3.22801,-1.49533 4.86576,0.0712 2.25486,2.18365 0.35603,2.82451 -2.7533,2.70584 -5.19805,0.75953 -2.18366,-2.08872 0.37977,-2.94318 1.73268,-1.70895 2.2786,-0.18988 0.45097,0.52218 -0.0712,1.11556 0.61712,-1.11556 -1.1393,-0.99689 -2.49221,0.33229 -1.80389,1.51907 -0.4035,3.37042 -2.11245,-1.78015 -1.44786,-2.25486 -1.35292,-0.99689 -3.10933,0.26109 2.18365,0.71206 3.37043,3.72646 3.01439,2.32607 2.30234,1.18676 h 3.44163 l 2.11245,-0.68832 2.3498,-1.51907 3.4179,-0.11867 0.71206,0.61712 0.71206,-0.54592 -1.16304,-1.23424 -2.84824,0.11868 v -3.91634 l -3.39416,-3.37042 -5.05564,-0.16615 -4.2249,1.42412 -2.6821,-0.18988 -2.89571,-1.68521 -4.20117,-0.0237 -8.35486,4.10623 -3.63151,-0.18989 -5.981317,-2.2786 h -3.607779 l -7.215558,3.89261 -3.702722,0.21362 -5.86264,-1.73269 z" /><path
       style="opacity:1;fill:#020202;fill-opacity:0.964706;stroke:#000000;stroke-width:0.1;stroke-opacity:1"
       d="m 69.42601,133.13179 1.020622,0.87821 c 2.000547,-0.14588 2.995805,-1.3913 6.835791,0.47471 l 7.310498,0.66459 6.432291,1.32918 3.845134,-0.0712 3.897283,-1.83003 a 6.9308943,6.9308943 168.82666 0 1 3.285251,-0.64891 l 0.69761,0.0342 5.57782,2.06498 5.91806,0.0386 a 8.6688352,8.6688352 171.4011 0 0 2.67356,-0.40429 l 1.39219,-0.44086 a 8.4960452,8.4960452 173.43493 0 1 3.22278,-0.37089 23.199988,23.199988 12.788835 0 1 4.06761,0.9233 l 5.80349,1.5286 a 11.845697,11.845697 7.0028433 0 0 3.17233,0.38967 l 3.82271,-0.0501 1.56654,-0.23735 0.71206,-0.54591 -3.27548,0.18988 -3.59725,-0.13081 a 11.557035,11.557035 10.089251 0 1 -3.16975,-0.564 l -3.02915,-0.98985 c -0.80325,-0.26248 -1.97999,-0.91678 -2.57195,-1.51922 -1.2715,-1.29403 -2.44102,-2.61298 -6.00309,-3.34709 -1.98806,0.10677 -3.66217,1.65775 -5.37991,3.00799 -0.55686,0.43772 -1.60403,0.77757 -2.3138,0.79192 a 10.356405,10.356405 13.360179 0 1 -3.55602,-0.84455 l -7.40583,-2.57449 a 3.800234,3.800234 9.4068199 0 0 -1.271392,-0.21064 l -1.583208,0.01 a 5.3037008,5.3037008 163.01191 0 0 -2.903737,0.88711 l -1.995014,1.32653 a 5.2343032,5.2343032 162.00484 0 1 -2.681802,0.87112 l -0.257363,0.0106 a 8.0587349,8.0587349 9.6991068 0 1 -3.321708,-0.56773 l -3.673094,-1.46673 a 13.548215,13.548215 14.156967 0 0 -3.479708,-0.87772 l -0.746587,-0.0857 a 10.991156,10.991156 177.19333 0 0 -3.568176,0.17493 l -2.526423,0.54437 z"
       id="path134"
       sodipodi:nodetypes="cccccccccccccccccccccccccccccc"
       inkscape:path-effect="#path-effect134"
       inkscape:original-d="m 69.42601,133.13179 1.020622,0.87821 c 2.000547,-0.14588 2.995805,-1.3913 6.835791,0.47471 l 7.310498,0.66459 6.432291,1.32918 3.845134,-0.0712 5.459134,-2.56342 2.42101,0.11868 5.57782,2.06498 7.28676,0.0475 4.27237,-1.35292 2.44475,0.18988 10.63345,2.80078 5.4354,-0.0712 1.56654,-0.23735 0.71206,-0.54591 -3.27548,0.18988 -5.22179,-0.18988 -6.02878,-1.97004 c -1.92819,-1.57255 -2.58405,-3.45611 -7.12062,-4.39105 -2.38185,0.12792 -4.31305,2.32884 -6.40856,3.77393 l -2.3498,0.0475 -10.514775,-3.65525 -3.821398,0.0237 -4.533458,3.0144 -3.441632,0.14241 -6.954469,-2.77704 -4.343575,-0.49844 -4.296105,0.92568 z" /><path
       style="opacity:1;fill:#020202;fill-opacity:0.964706;stroke:#000000;stroke-width:0.1;stroke-opacity:1"
       d="m 71.63178,135.4089 13.292495,1.17485 2.705212,0.98547 c 1.101342,0.4012 2.944624,0.72991 4.116124,0.69321 0.868516,-0.0272 1.708426,-0.0642 2.519452,-0.0847 0.70782,-0.0179 1.806068,-0.25075 2.451775,-0.54381 0.882433,-0.4005 1.495609,-0.68262 1.922092,-0.8834 0.87165,-0.41036 2.28065,-0.84708 3.25455,-0.77531 a 18.116904,18.116904 12.039606 0 1 3.80386,0.81128 l 3.32593,0.98761 a 13.644687,13.644687 7.9200473 0 0 4.05038,0.56348 l 3.43709,-0.0419 2.63263,-0.92498 a 4.9899418,4.9899418 173.71498 0 1 2.24398,-0.24714 l 0.96847,0.11529 a 11.475259,11.475259 10.306626 0 1 1.38543,0.25194 l 5.04134,1.24054 a 6.3232037,6.3232037 7.4587963 0 0 1.39024,0.18201 l 8.08926,0.15438 0.33567,-0.46994 -7.1161,-0.24433 a 5.8083591,5.8083591 8.8909291 0 1 -1.38369,-0.21646 l -6.46369,-1.83091 a 8.5830744,8.5830744 11.117053 0 0 -1.37968,-0.27111 l -0.15019,-0.0169 a 8.1702799,8.1702799 173.68875 0 0 -3.57894,0.39583 l -0.0573,0.0198 a 11.237326,11.237326 171.57467 0 1 -4.09569,0.60665 l -4.03805,-0.15446 -5.24338,-1.21218 a 334.07984,334.07984 12.841112 0 0 -2.00152,-0.45625 6.8985866,6.8985866 175.86845 0 0 -3.933878,0.28417 l -0.83668,0.31375 a 207.468,207.468 159.81069 0 1 -2.492797,0.91664 12.574363,12.574363 171.10972 0 1 -4.054128,0.63416 l -1.275656,0.0232 -5.169302,-1.57764 z"
       id="path135"
       inkscape:path-effect="#path-effect135"
       inkscape:original-d="m 71.63178,135.4089 13.292495,1.17485 4.699367,1.71191 c 2.129851,0.0112 4.105475,-0.14375 5.923367,-0.13255 6.039701,-2.72447 3.09494,-1.48982 4.583071,-2.3178 l 3.18886,0.23497 7.68682,2.28255 5.50498,-0.0671 3.72592,-1.30911 2.81962,0.33567 6.41128,1.57764 8.79453,0.16784 0.33567,-0.46994 -7.82109,-0.26854 -7.82109,-2.21541 -2.68535,-0.3021 -3.79306,1.30911 -6.14275,-0.23497 -6.24344,-1.44338 -2.98746,-0.67134 -4.028023,1.51051 -2.886755,1.04058 -3.692361,0.0671 -5.169302,-1.57764 z"
       sodipodi:nodetypes="ccccccccccccccccccccccccc" /></g></svg>
